<svg width="36" height="36" viewBox="0 0 36 36" fill="none" xmlns="http://www.w3.org/2000/svg">
<g id="solar:square-arrow-right-up-bold">
<path id="Vector" fill-rule="evenodd" clip-rule="evenodd" d="M30.804 30.804C33 28.605 33 25.071 33 18C33 10.929 33 7.3935 30.8025 5.196C28.608 3 25.071 3 18 3C10.929 3 7.39353 3 5.19603 5.196C3.00003 7.395 3.00003 10.929 3.00003 18C3.00003 25.071 3.00003 28.6065 5.19603 30.8025C7.39503 33 10.929 33 18 33C25.071 33 28.6065 33 30.8025 30.8025M22.2405 12.6315C22.5389 12.6315 22.825 12.75 23.036 12.961C23.247 13.172 23.3655 13.4581 23.3655 13.7565V20.1195C23.3655 20.4179 23.247 20.704 23.036 20.915C22.825 21.126 22.5389 21.2445 22.2405 21.2445C21.9422 21.2445 21.656 21.126 21.445 20.915C21.2341 20.704 21.1155 20.4179 21.1155 20.1195V16.4715L14.553 23.04C14.45 23.1505 14.3258 23.2392 14.1878 23.3007C14.0498 23.3622 13.9009 23.3952 13.7498 23.3979C13.5988 23.4006 13.4487 23.3728 13.3086 23.3162C13.1686 23.2596 13.0413 23.1754 12.9345 23.0686C12.8276 22.9617 12.7434 22.8345 12.6868 22.6944C12.6303 22.5543 12.6025 22.4043 12.6051 22.2532C12.6078 22.1022 12.6409 21.9532 12.7024 21.8152C12.7638 21.6772 12.8525 21.553 12.963 21.45L19.527 14.8845H15.879C15.5807 14.8845 15.2945 14.766 15.0835 14.555C14.8726 14.344 14.754 14.0579 14.754 13.7595C14.754 13.4611 14.8726 13.175 15.0835 12.964C15.2945 12.753 15.5807 12.6345 15.879 12.6345L22.2405 12.6315Z" fill="#FAFFFF"/>
</g>
</svg>
