<svg width="24" height="24" viewBox="0 0 24 24" fill="none" xmlns="http://www.w3.org/2000/svg">
<g id="solar:scooter-bold-duotone" clip-path="url(#clip0_349_842)">
<path id="Vector" opacity="0.5" d="M6.04096 20.1539C6.9611 20.1539 7.84357 19.7884 8.49421 19.1377C9.14485 18.4871 9.51038 17.6046 9.51038 16.6845H2.57153C2.57153 17.6046 2.93706 18.4871 3.5877 19.1377C4.23835 19.7884 5.12081 20.1539 6.04096 20.1539ZM20.2933 10.3216L19.3404 10.9021L17.4403 6.85445H19.1542C19.8689 6.85445 20.2263 6.85445 20.4923 7.0071C20.6715 7.10954 20.82 7.25808 20.9225 7.43731C21.0751 7.7033 21.0751 8.06181 21.0751 8.77535C21.0751 9.15236 21.0751 9.34202 21.0208 9.51318C20.9833 9.62999 20.9275 9.74008 20.8554 9.83931C20.7502 9.98502 20.5975 10.0972 20.2933 10.3216Z" fill="#FAFFFF" fill-opacity="0.64"/>
<path id="Vector_2" d="M14.5899 4.86878C14.228 4.83177 13.7573 4.83061 13.0449 4.83061H12.4343C12.2042 4.83061 11.9836 4.73923 11.821 4.57657C11.6583 4.41391 11.5669 4.19329 11.5669 3.96326C11.5669 3.73322 11.6583 3.5126 11.821 3.34994C11.9836 3.18728 12.2042 3.0959 12.4343 3.0959H13.0877C13.7469 3.0959 14.3066 3.0959 14.7692 3.14332C15.2607 3.1942 15.7164 3.30522 16.1454 3.57121C16.5768 3.8372 16.8786 4.19455 17.1446 4.61204C17.3944 5.00524 17.6442 5.50484 17.9391 6.09464L21.5797 13.377C22.1552 13.5597 22.6731 13.8895 23.0822 14.3336C23.4913 14.7778 23.7775 15.3211 23.9123 15.9097C24.0472 16.4983 24.0262 17.1119 23.8513 17.6899C23.6764 18.2679 23.3537 18.7903 22.9152 19.2054C22.4766 19.6205 21.9373 19.914 21.3506 20.0568C20.7639 20.1997 20.15 20.187 19.5697 20.02C18.9894 19.8531 18.4627 19.5375 18.0416 19.1047C17.6206 18.6718 17.3197 18.1366 17.1689 17.5518H2.0954C2.01907 17.5518 1.94043 17.5518 1.86758 17.546C1.3432 17.5054 0.855235 17.2623 0.507039 16.8681C0.158843 16.4739 -0.0222278 15.9597 0.00218308 15.4343V15.3684C0.00218308 14.981 0.00218306 14.7347 0.0195302 14.5184C0.123564 13.1999 0.699818 11.9632 1.64245 11.0354C2.58509 10.1076 3.83081 9.55113 5.15081 9.46807C5.35881 9.45805 5.56707 9.45419 5.7753 9.45651H6.71205C7.75056 9.45651 8.61792 9.45651 9.30486 9.54903C10.0311 9.64617 10.6868 9.86128 11.213 10.3886C11.7404 10.9148 11.9555 11.5705 12.0526 12.2968C12.1452 12.9838 12.1452 13.8511 12.1452 14.8896V15.8171H17.17C17.3237 15.2242 17.6312 14.6825 18.0616 14.2467C18.4919 13.8109 19.0297 13.4965 19.6206 13.3353L16.4056 6.9088C16.0876 6.27042 15.8771 5.85062 15.6805 5.54416C15.4955 5.25273 15.3636 5.12667 15.2341 5.04687C15.1057 4.96592 14.9334 4.90463 14.5899 4.86878Z" fill="#FAFFFF" fill-opacity="0.64"/>
</g>
<defs>
<clipPath id="clip0_349_842">
<rect width="24" height="24" fill="white"/>
</clipPath>
</defs>
</svg>
