<svg width="24" height="26" viewBox="0 0 24 26" fill="none" xmlns="http://www.w3.org/2000/svg">
    <g id="solar:bell-bold">
        <g id="Group 1">
            <path id="Vector"
                d="M7.75736 21.215C8.14415 21.7041 8.63704 22.0989 9.19878 22.3696C9.76052 22.6403 10.3764 22.7799 11 22.7777C11.6236 22.7799 12.2395 22.6403 12.8012 22.3696C13.363 22.0989 13.8558 21.7041 14.2426 21.215C12.0907 21.5067 9.90928 21.5067 7.75736 21.215ZM17 11.2222V11.848C17 12.5991 17.2133 13.3333 17.6151 13.9582L18.5999 15.4897C19.4986 16.8888 18.8124 18.7901 17.2488 19.2319C13.1633 20.3892 8.83668 20.3892 4.75115 19.2319C3.18761 18.7901 2.50139 16.8888 3.40005 15.4897L4.38493 13.9582C4.78811 13.3283 5.00191 12.5958 5.00093 11.848V11.2222C5.00093 7.78576 7.68713 5 11 5C14.3129 5 17 7.78576 17 11.2222Z"
                fill="#FAFFFF" />
            <circle id="Ellipse 1" cx="17" cy="5" r="4" fill="#E4B61A" stroke="#000307" />
        </g>
    </g>
</svg>