<svg width="20" height="20" viewBox="0 0 20 20" fill="none" xmlns="http://www.w3.org/2000/svg">
<g id="solar:user-block-linear">
<g id="Group">
<path id="Vector" d="M9.99996 8.33317C11.8409 8.33317 13.3333 6.84079 13.3333 4.99984C13.3333 3.15889 11.8409 1.6665 9.99996 1.6665C8.15901 1.6665 6.66663 3.15889 6.66663 4.99984C6.66663 6.84079 8.15901 8.33317 9.99996 8.33317Z" stroke="#A0A4A6" stroke-width="1.5"/>
<path id="Vector_2" d="M12.5 11.1056C11.6794 10.9221 10.8409 10.8307 9.99998 10.8331C6.31831 10.8331 3.33331 12.5122 3.33331 14.5831C3.33331 16.6539 3.33331 18.3331 9.99998 18.3331C14.7391 18.3331 16.1091 17.4847 16.5058 16.2497" stroke="#A0A4A6" stroke-width="1.5"/>
<path id="Vector_3" d="M17.3575 10.9758C17.667 11.2854 17.9125 11.6529 18.0801 12.0573C18.2476 12.4617 18.3338 12.8952 18.3338 13.3329C18.3338 13.7707 18.2476 14.2041 18.0801 14.6086C17.9125 15.013 17.667 15.3805 17.3575 15.69C17.0479 15.9995 16.6805 16.2451 16.276 16.4126C15.8716 16.5801 15.4381 16.6663 15.0004 16.6663C14.5626 16.6663 14.1292 16.5801 13.7247 16.4126C13.3203 16.2451 12.9528 15.9995 12.6433 15.69L17.3566 10.9767M12.6425 15.69C12.0173 15.0649 11.6661 14.217 11.6661 13.3329C11.6661 12.8952 11.7524 12.4617 11.9199 12.0573C12.0874 11.6529 12.3329 11.2854 12.6425 10.9758C12.952 10.6663 13.3195 10.4208 13.7239 10.2533C14.1283 10.0857 14.5618 9.99951 14.9996 9.99951C15.8836 9.99951 16.7315 10.3507 17.3566 10.9758" stroke="#A0A4A6" stroke-width="1.5" stroke-linejoin="round"/>
</g>
</g>
</svg>
