<svg width="20" height="20" viewBox="0 0 20 20" fill="none" xmlns="http://www.w3.org/2000/svg">
<g id="solar:bug-linear" clip-path="url(#clip0_552_1443)">
<g id="Group">
<path id="Vector" d="M15.8334 12.4998V9.94817C15.8334 9.07796 15.4877 8.24338 14.8725 7.62798C14.2572 7.01257 13.4227 6.66672 12.5525 6.6665H7.44669C6.57662 6.66695 5.74235 7.01289 5.12728 7.62827C4.5122 8.24366 4.16669 9.07811 4.16669 9.94817V12.4998C4.16669 13.2659 4.31757 14.0244 4.61072 14.7322C4.90388 15.4399 5.33356 16.083 5.87523 16.6246C6.41691 17.1663 7.05997 17.596 7.7677 17.8891C8.47543 18.1823 9.23398 18.3332 10 18.3332C10.7661 18.3332 11.5246 18.1823 12.2323 17.8891C12.9401 17.596 13.5831 17.1663 14.1248 16.6246C14.6665 16.083 15.0962 15.4399 15.3893 14.7322C15.6825 14.0244 15.8334 13.2659 15.8334 12.4998Z" stroke="#A0A4A6" stroke-width="1.5"/>
<path id="Vector_2" d="M13.75 7.08333V6.25C13.75 5.25544 13.3549 4.30161 12.6516 3.59835C11.9484 2.89509 10.9946 2.5 10 2.5C9.00544 2.5 8.05161 2.89509 7.34835 3.59835C6.64509 4.30161 6.25 5.25544 6.25 6.25V7.08333" stroke="#A0A4A6" stroke-width="1.5"/>
<path id="Vector_3" d="M15.8334 11.6665H18.3334M4.16669 11.6665H1.66669M12.0834 2.9165L14.1667 1.6665M7.91669 2.9165L5.83335 1.6665M17.0834 16.6665L15.4167 15.9998M17.0834 6.6665L15.4167 7.33317M2.91669 16.6665L4.58335 15.9998M2.91669 6.6665L4.58335 7.33317M10 17.9165V12.4998" stroke="#A0A4A6" stroke-width="1.5" stroke-linecap="round"/>
</g>
</g>
<defs>
<clipPath id="clip0_552_1443">
<rect width="20" height="20" fill="white"/>
</clipPath>
</defs>
</svg>
