<svg width="20" height="20" viewBox="0 0 20 20" fill="none" xmlns="http://www.w3.org/2000/svg">
<g id="solar:close-square-linear">
<g id="Group">
<path id="Vector" d="M1.66666 9.99984C1.66666 6.0715 1.66666 4.10734 2.88666 2.8865C4.10832 1.6665 6.07166 1.6665 9.99999 1.6665C13.9283 1.6665 15.8925 1.6665 17.1125 2.8865C18.3333 4.10817 18.3333 6.0715 18.3333 9.99984C18.3333 13.9282 18.3333 15.8923 17.1125 17.1123C15.8933 18.3332 13.9283 18.3332 9.99999 18.3332C6.07166 18.3332 4.10749 18.3332 2.88666 17.1123C1.66666 15.8932 1.66666 13.9282 1.66666 9.99984Z" stroke="#FAFFFF"/>
<path id="Vector_2" d="M12.0833 7.9165L7.91666 12.0832M7.91666 7.9165L12.0833 12.0832" stroke="#FAFFFF" stroke-linecap="round"/>
</g>
</g>
</svg>
