<svg width="24" height="24" viewBox="0 0 24 24" fill="none" xmlns="http://www.w3.org/2000/svg">
<path d="M16 5C16 4.44772 15.5523 4 15 4H4C3.44772 4 3 4.44772 3 5V16.0003L6.33301 13.2308C6.51255 13.0817 6.73924 13 6.97266 13H8H15C15.5523 13 16 12.5523 16 12V8V5Z" fill="#FAFFFF" stroke="#FAFFFF" stroke-linecap="round" stroke-linejoin="round"/>
<path d="M20 8H16V12C16 12.5523 15.5523 13 15 13H8V16C8 16.5523 8.44771 17 9 17H17.0273C17.2608 17 17.4875 17.0818 17.667 17.231L21 20V9C21 8.44772 20.5523 8 20 8Z" fill="#FAFFFF" fill-opacity="0.64"/>
<path d="M16 7.75C15.8619 7.75 15.75 7.86193 15.75 8V12C15.75 12.4142 15.4142 12.75 15 12.75H8C7.86193 12.75 7.75 12.8619 7.75 13V16C7.75 16.6904 8.30964 17.25 9 17.25H17.0273C17.2025 17.25 17.3726 17.3114 17.5072 17.4233L20.8402 20.1923C20.9148 20.2542 21.0185 20.2675 21.1062 20.2263C21.194 20.1851 21.25 20.0969 21.25 20V9C21.25 8.30964 20.6904 7.75 20 7.75H16Z" stroke="#FAFFFF" stroke-opacity="0.64" stroke-width="0.5" stroke-linecap="round" stroke-linejoin="round"/>
</svg>
