<svg width="24" height="24" viewBox="0 0 24 24" fill="none" xmlns="http://www.w3.org/2000/svg">
<g id="solar:broom-bold-duotone">
<path id="Vector" opacity="0.5" d="M22.53 2.52991C22.6037 2.46125 22.6628 2.37845 22.7038 2.28645C22.7448 2.19445 22.7668 2.09513 22.7686 1.99443C22.7704 1.89373 22.7519 1.7937 22.7141 1.70031C22.6764 1.60692 22.6203 1.52209 22.5491 1.45087C22.4778 1.37965 22.393 1.32351 22.2996 1.28579C22.2062 1.24807 22.1062 1.22954 22.0055 1.23132C21.9048 1.23309 21.8055 1.25514 21.7135 1.29613C21.6215 1.33712 21.5387 1.39622 21.47 1.46991L19.067 3.87191C19.4778 4.16298 19.8366 4.52136 20.128 4.93191L22.53 2.52991ZM2.44902 11.4109L3.18902 12.6289C5.22222 15.9712 8.02777 18.7767 11.37 20.8099L12.589 21.5509C14.487 22.5209 16.942 21.8979 18.003 19.8899C18.503 18.9409 18.98 17.8779 19.282 16.8199C19.6818 15.408 19.9207 13.9555 19.994 12.4899C20.027 11.8499 20.043 11.5289 19.89 11.1329C19.738 10.7379 19.474 10.4729 18.946 9.94591L14.12 5.11991C13.629 4.62891 13.383 4.38291 13.013 4.22991C12.643 4.07891 12.349 4.07991 11.76 4.08191C10.2114 4.08627 8.67045 4.29987 7.17902 4.71691C6.12202 5.01891 5.05902 5.49491 4.11002 5.99691C2.10202 7.05691 1.48002 9.51191 2.44902 11.4099" fill="#FAFFFF" fill-opacity="0.64"/>
<path id="Vector_2" d="M19.643 4.35798C19.2302 3.94511 18.7402 3.61759 18.2008 3.39413C17.6614 3.17068 17.0833 3.05566 16.4995 3.05566C15.9157 3.05566 15.3376 3.17068 14.7982 3.39413C14.2588 3.61759 13.7688 3.94511 13.356 4.35798L13.318 4.39498C13.55 4.55098 13.774 4.77498 14.12 5.12098L18.945 9.94598C19.247 10.248 19.463 10.463 19.62 10.666L19.643 10.644C20.4765 9.81039 20.9448 8.67983 20.9448 7.50098C20.9448 6.32214 20.4765 5.19158 19.643 4.35798Z" fill="#FAFFFF" fill-opacity="0.64"/>
</g>
</svg>
