<svg width="16" height="16" viewBox="0 0 16 16" fill="none" xmlns="http://www.w3.org/2000/svg">
<g id="solar:danger-triangle-linear">
<g id="Group">
<path id="Vector" d="M3.54129 7.17467C5.48662 3.72467 6.45929 2 7.99996 2C9.53996 2 10.5133 3.72467 12.4586 7.17467L12.7013 7.604C14.318 10.4707 15.1266 11.904 14.396 12.952C13.6653 14 11.8573 14 8.24262 14H7.75729C4.14262 14 2.33462 14 1.60396 12.952C0.87329 11.904 1.68196 10.4707 3.29862 7.604L3.54129 7.17467Z" stroke="#000307" stroke-width="1.5"/>
<path id="Vector_2" d="M8 5.3335V8.66683" stroke="#000307" stroke-width="1.5" stroke-linecap="round"/>
<path id="Vector_3" d="M7.99992 11.3333C8.36811 11.3333 8.66659 11.0349 8.66659 10.6667C8.66659 10.2985 8.36811 10 7.99992 10C7.63173 10 7.33325 10.2985 7.33325 10.6667C7.33325 11.0349 7.63173 11.3333 7.99992 11.3333Z" fill="#000307"/>
</g>
</g>
</svg>
