<svg width="20" height="20" viewBox="0 0 20 20" fill="none" xmlns="http://www.w3.org/2000/svg">
<g id="solar:file-download-linear">
<g id="Group">
<path id="Vector" d="M11.6667 17.7082H8.33335V18.9582H11.6667V17.7082ZM2.29169 11.6665V8.33322H1.04169V11.6665H2.29169ZM17.7084 11.3024V11.6665H18.9584V11.3024H17.7084ZM12.4092 3.84238L15.7084 6.81155L16.5442 5.88155L13.2459 2.91238L12.4092 3.84238ZM18.9584 11.3024C18.9584 9.89488 18.9709 9.00322 18.6167 8.20655L17.4742 8.71572C17.6959 9.21405 17.7084 9.78488 17.7084 11.3024H18.9584ZM15.7084 6.81155C16.8359 7.82655 17.2525 8.21822 17.4742 8.71572L18.6167 8.20655C18.2617 7.40905 17.5909 6.82322 16.5442 5.88155L15.7084 6.81155ZM8.35835 2.29155C9.67669 2.29155 10.1742 2.30155 10.6167 2.47155L11.065 1.30488C10.355 1.03155 9.58169 1.04155 8.35835 1.04155V2.29155ZM13.2459 2.91322C12.3409 2.09905 11.775 1.57655 11.065 1.30488L10.6175 2.47155C11.0609 2.64155 11.4342 2.96488 12.4092 3.84238L13.2459 2.91322ZM8.33335 17.7082C6.74419 17.7082 5.61585 17.7066 4.75835 17.5916C3.92085 17.479 3.43752 17.2674 3.08502 16.9149L2.20169 17.7982C2.82502 18.4232 3.61585 18.699 4.59252 18.8307C5.55085 18.9599 6.78002 18.9582 8.33335 18.9582V17.7082ZM1.04169 11.6665C1.04169 13.2199 1.04002 14.4482 1.16919 15.4074C1.30085 16.3841 1.57752 17.1749 2.20085 17.799L3.08419 16.9157C2.73252 16.5624 2.52085 16.079 2.40835 15.2407C2.29335 14.3849 2.29169 13.2557 2.29169 11.6665H1.04169ZM11.6667 18.9582C13.22 18.9582 14.4484 18.9599 15.4075 18.8307C16.3842 18.699 17.175 18.4224 17.7992 17.799L16.9159 16.9157C16.5625 17.2674 16.0792 17.479 15.2409 17.5916C14.385 17.7066 13.2559 17.7082 11.6667 17.7082V18.9582ZM17.7084 11.6665C17.7084 13.2557 17.7067 14.3849 17.5917 15.2416C17.4792 16.0791 17.2675 16.5624 16.915 16.9149L17.7984 17.7982C18.4234 17.1749 18.6992 16.3841 18.8309 15.4074C18.96 14.449 18.9584 13.2199 18.9584 11.6665H17.7084ZM2.29169 8.33322C2.29169 6.74405 2.29335 5.61572 2.40835 4.75822C2.52085 3.92072 2.73252 3.43738 3.08502 3.08488L2.20169 2.20155C1.57669 2.82488 1.30085 3.61572 1.16919 4.59238C1.04002 5.55072 1.04169 6.77988 1.04169 8.33322H2.29169ZM8.35835 1.04155C6.79585 1.04155 5.56169 1.03988 4.59919 1.16905C3.61835 1.30072 2.82502 1.57738 2.20085 2.20072L3.08419 3.08405C3.43752 2.73238 3.92169 2.52072 4.76502 2.40822C5.62585 2.29322 6.76085 2.29155 8.35835 2.29155V1.04155Z" fill="#FAFFFF"/>
<path id="Vector_2" d="M10.8334 2.08301V4.16634C10.8334 6.13051 10.8334 7.11301 11.4434 7.72301C12.0534 8.33301 13.0359 8.33301 15 8.33301H18.3334" stroke="#FAFFFF"/>
<path id="Vector_3" d="M7.08335 11.25V15.4167M7.08335 15.4167L8.75002 13.8542M7.08335 15.4167L5.41669 13.8542" stroke="#FAFFFF" stroke-linecap="round" stroke-linejoin="round"/>
</g>
</g>
</svg>
