<svg width="12" height="12" viewBox="0 0 12 12" fill="none" xmlns="http://www.w3.org/2000/svg">
<g id="solar:pen-bold">
<path id="Vector" d="M5.7005 9.08036L9.3985 5.38236C8.77632 5.1226 8.21128 4.74307 7.7355 4.26536C7.25756 3.78947 6.87786 3.22425 6.618 2.60186L2.92 6.29986C2.6315 6.58836 2.487 6.73286 2.363 6.89186C2.21655 7.0795 2.09098 7.28253 1.9885 7.49736C1.902 7.67936 1.8375 7.87336 1.7085 8.26036L1.0275 10.3019C0.996155 10.3953 0.991504 10.4957 1.01407 10.5917C1.03663 10.6876 1.08552 10.7754 1.15523 10.8451C1.22495 10.9148 1.31272 10.9637 1.40869 10.9863C1.50466 11.0089 1.60502 11.0042 1.6985 10.9729L3.74 10.2919C4.1275 10.1629 4.321 10.0984 4.503 10.0119C4.718 9.90936 4.921 9.78386 5.1085 9.63736C5.2675 9.51336 5.412 9.36886 5.7005 9.08036ZM10.4245 4.35636C10.7932 3.98764 11.0004 3.48756 11.0004 2.96611C11.0004 2.44467 10.7932 1.94458 10.4245 1.57586C10.0558 1.20714 9.55569 1 9.03425 1C8.5128 1 8.01271 1.20714 7.644 1.57586L7.2005 2.01936L7.2195 2.07486C7.43805 2.70022 7.79571 3.26781 8.2655 3.73486C8.74651 4.21871 9.33398 4.58341 9.981 4.79986L10.4245 4.35636Z" fill="#FAFFFF"/>
</g>
</svg>
