<svg width="20" height="20" viewBox="0 0 20 20" fill="none" xmlns="http://www.w3.org/2000/svg">
<g id="solar:question-square-linear" clip-path="url(#clip0_552_1473)">
<g id="Group">
<path id="Vector" d="M1.66669 9.99984C1.66669 6.0715 1.66669 4.10734 2.88669 2.8865C4.10835 1.6665 6.07169 1.6665 10 1.6665C13.9284 1.6665 15.8925 1.6665 17.1125 2.8865C18.3334 4.10817 18.3334 6.0715 18.3334 9.99984C18.3334 13.9282 18.3334 15.8923 17.1125 17.1123C15.8934 18.3332 13.9284 18.3332 10 18.3332C6.07169 18.3332 4.10752 18.3332 2.88669 17.1123C1.66669 15.8932 1.66669 13.9282 1.66669 9.99984Z" stroke="#A0A4A6" stroke-width="1.5"/>
<path id="Vector_2" d="M8.4375 7.39579C8.43754 7.12215 8.50943 6.85333 8.64599 6.61621C8.78255 6.37909 8.97899 6.18199 9.21565 6.04463C9.45231 5.90727 9.72089 5.83447 9.99452 5.83351C10.2682 5.83255 10.5372 5.90346 10.7749 6.03916C11.0125 6.17486 11.2103 6.37057 11.3485 6.60673C11.4867 6.84289 11.5605 7.11121 11.5625 7.38483C11.5644 7.65846 11.4945 7.9278 11.3596 8.16591C11.2248 8.40402 11.0298 8.60254 10.7942 8.74162C10.3983 8.97579 10 9.33162 10 9.79162V10.8333" stroke="#A0A4A6" stroke-width="1.5" stroke-linecap="round"/>
<path id="Vector_3" d="M10 14.1667C10.4603 14.1667 10.8334 13.7936 10.8334 13.3333C10.8334 12.8731 10.4603 12.5 10 12.5C9.53978 12.5 9.16669 12.8731 9.16669 13.3333C9.16669 13.7936 9.53978 14.1667 10 14.1667Z" fill="#A0A4A6"/>
</g>
</g>
<defs>
<clipPath id="clip0_552_1473">
<rect width="20" height="20" fill="white"/>
</clipPath>
</defs>
</svg>
