<svg width="24" height="24" viewBox="0 0 24 24" fill="none" xmlns="http://www.w3.org/2000/svg">
<g id="solar:tuning-bold">
<path id="Vector" d="M16.959 9.75C16.7601 9.75 16.5693 9.67098 16.4287 9.53033C16.288 9.38968 16.209 9.19891 16.209 9V2C16.209 1.80109 16.288 1.61032 16.4287 1.46967C16.5693 1.32902 16.7601 1.25 16.959 1.25C17.1579 1.25 17.3487 1.32902 17.4893 1.46967C17.63 1.61032 17.709 1.80109 17.709 2V9C17.709 9.19891 17.63 9.38968 17.4893 9.53033C17.3487 9.67098 17.1579 9.75 16.959 9.75ZM7 12.5C6.60603 12.5 6.21593 12.4224 5.85195 12.2716C5.48797 12.1209 5.15726 11.8999 4.87868 11.6213C4.6001 11.3427 4.37913 11.012 4.22836 10.6481C4.0776 10.2841 4 9.89397 4 9.5C4 9.10603 4.0776 8.71593 4.22836 8.35195C4.37913 7.98797 4.6001 7.65726 4.87868 7.37868C5.15726 7.1001 5.48797 6.87913 5.85195 6.72836C6.21593 6.5776 6.60603 6.5 7 6.5C7.79565 6.5 8.55871 6.81607 9.12132 7.37868C9.68393 7.94129 10 8.70435 10 9.5C10 10.2956 9.68393 11.0587 9.12132 11.6213C8.55871 12.1839 7.79565 12.5 7 12.5ZM17 11.5C16.2044 11.5 15.4413 11.8161 14.8787 12.3787C14.3161 12.9413 14 13.7044 14 14.5C14 15.2956 14.3161 16.0587 14.8787 16.6213C15.4413 17.1839 16.2044 17.5 17 17.5C17.7956 17.5 18.5587 17.1839 19.1213 16.6213C19.6839 16.0587 20 15.2956 20 14.5C20 13.7044 19.6839 12.9413 19.1213 12.3787C18.5587 11.8161 17.7956 11.5 17 11.5ZM6.209 15C6.209 14.8011 6.28802 14.6103 6.42867 14.4697C6.56932 14.329 6.76009 14.25 6.959 14.25C7.15791 14.25 7.34868 14.329 7.48933 14.4697C7.62998 14.6103 7.709 14.8011 7.709 15V22C7.709 22.1989 7.62998 22.3897 7.48933 22.5303C7.34868 22.671 7.15791 22.75 6.959 22.75C6.76009 22.75 6.56932 22.671 6.42867 22.5303C6.28802 22.3897 6.209 22.1989 6.209 22V15ZM16.959 22.75C16.7601 22.75 16.5693 22.671 16.4287 22.5303C16.288 22.3897 16.209 22.1989 16.209 22V20C16.209 19.8011 16.288 19.6103 16.4287 19.4697C16.5693 19.329 16.7601 19.25 16.959 19.25C17.1579 19.25 17.3487 19.329 17.4893 19.4697C17.63 19.6103 17.709 19.8011 17.709 20V22C17.709 22.1989 17.63 22.3897 17.4893 22.5303C17.3487 22.671 17.1579 22.75 16.959 22.75ZM6.209 2C6.209 1.80109 6.28802 1.61032 6.42867 1.46967C6.56932 1.32902 6.76009 1.25 6.959 1.25C7.15791 1.25 7.34868 1.32902 7.48933 1.46967C7.62998 1.61032 7.709 1.80109 7.709 2V4C7.709 4.19891 7.62998 4.38968 7.48933 4.53033C7.34868 4.67098 7.15791 4.75 6.959 4.75C6.76009 4.75 6.56932 4.67098 6.42867 4.53033C6.28802 4.38968 6.209 4.19891 6.209 4V2Z" fill="#FAFFFF"/>
</g>
</svg>
