<svg width="24" height="24" viewBox="0 0 24 24" fill="none" xmlns="http://www.w3.org/2000/svg">
<g id="solar:syringe-bold">
<path id="Vector" d="M17.7819 3.2261C17.6374 3.08142 17.4413 3.00009 17.2368 3C17.0323 2.99991 16.8361 3.08106 16.6914 3.2256C16.5467 3.37014 16.4654 3.56624 16.4653 3.77075C16.4652 3.97525 16.5464 4.17142 16.6909 4.3161L17.6409 5.2671L15.9429 6.9671L15.0749 6.0991C14.2999 5.3231 13.9119 4.9361 13.4719 4.7751C13.0042 4.60516 12.4916 4.60516 12.0239 4.7751C11.5839 4.9351 11.1959 5.3231 10.4209 6.0991L10.3009 6.2191L17.7809 13.6991L17.9009 13.5791C18.6759 12.8041 19.0639 12.4161 19.2239 11.9761C19.3939 11.5081 19.3939 10.9961 19.2239 10.5281C19.0639 10.0881 18.6759 9.7001 17.9009 8.9251L17.0339 8.0571L18.7319 6.3581L19.6829 7.3091C19.8275 7.45378 20.0236 7.53511 20.2281 7.5352C20.4326 7.53529 20.6287 7.45414 20.7734 7.3096C20.9181 7.16506 20.9994 6.96896 20.9995 6.76445C20.9996 6.55995 20.9185 6.36378 20.7739 6.2191L17.7819 3.2261ZM6.01592 10.5041L9.20992 7.3091L16.6899 14.7891L15.5379 15.9431L12.5699 12.9751C12.4983 12.9035 12.4132 12.8466 12.3196 12.8079C12.226 12.7691 12.1257 12.7491 12.0244 12.7491C11.9231 12.7491 11.8228 12.7691 11.7292 12.8079C11.6356 12.8466 11.5506 12.9035 11.4789 12.9751C11.4073 13.0467 11.3505 13.1318 11.3117 13.2254C11.2729 13.319 11.253 13.4193 11.253 13.5206C11.253 13.6219 11.2729 13.7222 11.3117 13.8158C11.3505 13.9094 11.4073 13.9945 11.4789 14.0661L14.4469 17.0341L13.8549 17.6261L12.1619 15.9331C12.0155 15.7973 11.8221 15.7235 11.6224 15.7273C11.4227 15.731 11.2323 15.812 11.0911 15.9532C10.9498 16.0945 10.8688 16.2849 10.8651 16.4846C10.8613 16.6843 10.9351 16.8777 11.0709 17.0241L12.6909 18.6451C11.7834 19.2496 10.7114 19.5591 9.62139 19.5313C8.53136 19.5036 7.47649 19.14 6.60092 18.4901L4.31692 20.7741C4.17016 20.9075 3.97771 20.9792 3.77947 20.9745C3.58123 20.9698 3.3924 20.889 3.25212 20.7489C3.11184 20.6087 3.03087 20.42 3.02599 20.2217C3.02111 20.0235 3.0927 19.831 3.22592 19.6841L5.50992 17.3991C4.75311 16.3803 4.38783 15.1233 4.48072 13.8575C4.57361 12.5917 5.11848 11.4015 6.01592 10.5041Z" fill="#FAFFFF" fill-opacity="0.64"/>
</g>
</svg>
