<svg width="24" height="24" viewBox="0 0 24 24" fill="none" xmlns="http://www.w3.org/2000/svg">
<g id="material-symbols-light:grass-rounded" clip-path="url(#clip0_349_871)">
<path id="Vector" d="M0.709205 20.9627C0.507834 20.9627 0.339552 20.8946 0.204359 20.7584C0.0691667 20.6223 0.00109799 20.454 0.000152588 20.2536C0.000152588 20.0513 0.0682213 19.8825 0.204359 19.7473C0.339552 19.6121 0.507834 19.5445 0.709205 19.5445H6.90065C6.55369 18.1643 5.99637 17.017 5.2287 16.1028C4.46104 15.1877 3.50949 14.3519 2.37406 13.5956C1.96281 13.3252 1.77373 13.0567 1.80682 12.7901C1.83896 12.5235 2.10793 12.3751 2.61372 12.3448C5.10864 12.2456 7.29677 13.009 9.17813 14.6351C11.0595 16.2612 12.0002 18.3704 12.0002 20.9627H0.709205ZM13.4183 20.9627C13.4183 20.4786 13.3804 19.9733 13.3048 19.4467C13.2273 18.9211 13.0968 18.3997 12.9134 17.8825C13.7246 16.2886 14.868 14.9745 16.3438 13.9402C17.8186 12.905 19.4906 12.3732 21.3596 12.3448C21.891 12.3392 22.1727 12.481 22.2048 12.7703C22.2379 13.0605 22.0451 13.3356 21.6262 13.5956C20.5267 14.2612 19.5889 15.0742 18.8127 16.0347C18.0366 16.9943 17.4655 18.1643 17.0997 19.5445H23.2911C23.4925 19.5445 23.6608 19.6121 23.7959 19.7473C23.9321 19.8825 24.0002 20.0513 24.0002 20.2536C24.0002 20.455 23.9321 20.6233 23.7959 20.7584C23.6598 20.8936 23.4915 20.9617 23.2911 20.9627H13.4183ZM12.3263 16.4701C11.9812 13.9648 12.3783 11.7554 13.5175 9.84188C14.6567 7.92838 16.2488 6.58449 18.2937 5.81021C18.8373 5.60222 19.2211 5.62018 19.4452 5.8641C19.6693 6.10801 19.5539 6.46348 19.0992 6.93051C18.288 7.74923 17.6414 8.62751 17.1592 9.56535C16.6761 10.5032 16.3183 11.4505 16.0857 12.4072C15.318 12.8128 14.5665 13.4079 13.8309 14.1926C13.0954 14.9773 12.5943 15.7365 12.3277 16.4701M10.9125 14.5202C10.592 14.108 10.1902 13.6982 9.70708 13.2907C9.22303 12.8842 8.72764 12.5585 8.2209 12.3136C8.27479 12.1179 8.31828 11.8797 8.35137 11.5989C8.38446 11.3181 8.401 11.043 8.401 10.7736C8.401 9.75727 8.29228 8.78161 8.07484 7.84661C7.8574 6.91255 7.54305 6.01394 7.1318 5.15079C6.87181 4.63082 6.89403 4.27818 7.19845 4.09288C7.50382 3.90853 7.86543 3.99645 8.2833 4.35665C9.11526 5.04207 9.83849 5.87213 10.453 6.84684C11.0666 7.82061 11.5194 8.92768 11.8115 10.168C11.5137 10.8043 11.293 11.5138 11.1493 12.2966C11.0056 13.0794 10.9266 13.8206 10.9125 14.5202Z" fill="#FAFFFF" fill-opacity="0.64"/>
</g>
<defs>
<clipPath id="clip0_349_871">
<rect width="24" height="24" fill="white"/>
</clipPath>
</defs>
</svg>
