<svg width="17" height="16" viewBox="0 0 17 16" fill="none" xmlns="http://www.w3.org/2000/svg">
<path d="M8.49999 1.28564C9.97762 1.28564 11.3947 1.87263 12.4396 2.91748C13.4844 3.96232 14.0714 5.37944 14.0714 6.85707C14.0714 9.21136 12.4171 11.7771 9.15142 14.5816C8.96983 14.7376 8.73831 14.8233 8.49892 14.8231C8.25953 14.8229 8.02816 14.7368 7.84684 14.5805L7.63084 14.3931C4.5097 11.6616 2.92856 9.15879 2.92856 6.85707C2.92856 5.37944 3.51555 3.96232 4.56039 2.91748C5.60524 1.87263 7.02235 1.28564 8.49999 1.28564ZM8.49999 4.71422C7.93167 4.71422 7.38662 4.93998 6.98476 5.34185C6.58289 5.74371 6.35713 6.28875 6.35713 6.85707C6.35713 7.4254 6.58289 7.97044 6.98476 8.3723C7.38662 8.77417 7.93167 8.99993 8.49999 8.99993C9.06831 8.99993 9.61335 8.77417 10.0152 8.3723C10.4171 7.97044 10.6428 7.4254 10.6428 6.85707C10.6428 6.28875 10.4171 5.74371 10.0152 5.34185C9.61335 4.93998 9.06831 4.71422 8.49999 4.71422Z" fill="#3399CC"/>
</svg>
