<svg width="865" height="209" viewBox="0 0 865 209" fill="none" xmlns="http://www.w3.org/2000/svg">
<path d="M182.276 124.143C187.965 124.143 193.298 123.076 198.276 120.943C203.254 118.81 207.609 115.876 211.343 112.143C215.076 108.41 218.009 104.054 220.143 99.0762C222.276 94.0984 223.343 88.7651 223.343 83.0762C223.343 77.3873 222.276 72.054 220.143 67.0762C218.009 62.0984 215.076 57.7429 211.343 54.0095C207.609 50.2762 203.254 47.3429 198.276 45.2095C193.298 43.0762 187.965 42.0095 182.276 42.0095H73.2095C67.5206 42.0095 62.1873 43.0762 57.2095 45.2095C52.2317 47.3429 47.8762 50.2762 44.1428 54.0095C40.4095 57.7429 37.4762 62.0984 35.3428 67.0762C33.2095 72.054 32.1428 77.3873 32.1428 83.0762C32.1428 88.7651 33.2095 94.0984 35.3428 99.0762C37.4762 104.054 40.4095 108.41 44.1428 112.143C47.8762 115.876 52.2317 118.81 57.2095 120.943C62.1873 123.076 67.5206 124.143 73.2095 124.143H110.809C101.921 133.21 95.7873 143.876 92.4095 156.143H73.2095C63.0762 156.143 53.565 154.276 44.6762 150.543C35.965 146.632 28.2317 141.387 21.4762 134.81C14.8984 128.054 9.65393 120.321 5.74282 111.61C2.00949 102.721 0.142822 93.2095 0.142822 83.0762C0.142822 72.9429 2.00949 63.4317 5.74282 54.5429C9.65393 45.654 14.8984 37.9206 21.4762 31.3429C28.2317 24.7651 35.965 19.6095 44.6762 15.8762C53.565 11.9651 63.0762 10.0095 73.2095 10.0095H182.276C192.409 10.0095 201.921 11.9651 210.809 15.8762C219.698 19.6095 227.432 24.7651 234.009 31.3429C240.765 37.9206 246.009 45.654 249.743 54.5429C253.654 63.4317 255.609 72.9429 255.609 83.0762C255.609 93.2095 253.654 102.721 249.743 111.61C246.009 120.321 240.765 128.054 234.009 134.81C227.432 141.387 219.698 146.632 210.809 150.543C201.921 154.276 192.409 156.143 182.276 156.143H166.009C160.321 156.143 155.432 158.098 151.343 162.01C147.432 166.098 145.476 170.987 145.476 176.676H113.476C113.476 169.387 114.809 162.543 117.476 156.143C120.321 149.743 124.054 144.232 128.676 139.61C133.476 134.81 139.076 131.076 145.476 128.41C151.876 125.565 158.721 124.143 166.009 124.143H182.276Z" fill="#FCF6E4"/>
<path d="M302.694 158C297.306 158 292.246 157.014 287.514 155.043C282.783 152.94 278.643 150.18 275.094 146.763C271.677 143.214 268.917 139.074 266.814 134.343C264.843 129.611 263.857 124.551 263.857 119.163V80.3257H287.514V119.163C287.514 123.369 288.96 126.983 291.851 130.006C294.874 132.897 298.489 134.343 302.694 134.343H344.291C348.497 134.343 352.046 132.897 354.937 130.006C357.829 126.983 359.274 123.369 359.274 119.163V80.3257H383.129V119.163C383.129 124.551 382.077 129.611 379.974 134.343C378.003 139.074 375.243 143.214 371.694 146.763C368.146 150.18 364.006 152.94 359.274 155.043C354.543 157.014 349.549 158 344.291 158H302.694ZM414.964 70.2714H391.307V56.4714H414.964V70.2714ZM391.307 80.3257H414.964V158H391.307V80.3257ZM518.219 158L491.013 130.794H449.811V158H426.153V56.4714H449.811V107.531H491.013L518.219 80.3257H551.339L512.305 119.163L551.339 158H518.219ZM572.726 158V20H583.766V82.6914H671.1V20H682.338V158H671.1V92.5486H583.766V158H572.726ZM704.615 59.4286L741.48 141.046C742.86 144.2 742.466 148.537 742.466 151.889H745.029C745.029 148.537 744.635 144.2 746.015 141.046L782.88 59.4286H792.738L749.958 157.803C747.395 163.914 745.029 168.843 742.269 175.151C734.383 194.274 729.455 207.286 711.318 207.286H697.912V197.626H709.543C721.766 197.626 723.935 190.726 730.046 177.32L738.129 159.183L694.758 59.4286H704.615ZM815.119 69.4829C823.202 58.64 830.497 56.4714 853.759 56.4714V66.5257C832.074 66.5257 811.768 73.2286 811.768 100.631V158H801.517V59.4286H811.768V68.6943C811.768 72.44 809.994 77.1714 808.811 80.9171L811.177 81.7057C812.359 77.96 812.951 72.8343 815.119 69.4829Z" fill="#FCF6E4"/>
<path d="M277.328 193.804L274.136 208H269.32L264.448 188.4H268.508L271.224 200.104C271.476 201.224 271.308 202.764 271.28 203.912L271.98 203.94C271.98 202.764 271.868 201.252 272.148 200.132L275.312 188.4H280.212L283.404 200.132C283.712 201.252 283.572 202.764 283.6 203.94L284.3 203.912C284.272 202.764 284.076 201.224 284.356 200.104L287.072 188.4H291.132L286.26 208H281.444L278.196 193.804C277.944 192.684 278.112 191.144 278.112 189.996H277.412C277.412 191.144 277.608 192.684 277.328 193.804ZM324.711 198.2C324.711 192.404 329.107 187.98 334.511 187.98C339.915 187.98 344.311 192.796 344.311 198.2C344.311 203.604 339.915 208.448 334.511 208.448C329.107 208.448 324.711 203.996 324.711 198.2ZM328.911 198.2C328.911 201.084 330.619 204.388 334.511 204.388C338.403 204.388 340.111 201.084 340.111 198.2C340.111 195.316 338.403 192.04 334.511 192.04C330.619 192.04 328.911 195.316 328.911 198.2ZM392.828 199.544C393.976 200.272 394.34 201.504 394.704 203.1C394.956 204.22 396.188 208 396.188 208H391.876C391.26 205.536 390.812 203.716 390.7 203.324C389.832 200.16 387.956 200.692 386.948 200.636H384.204V208H380.144V188.4H387.536C392.016 188.4 395.712 189.296 395.712 193.888C395.712 196.324 394.508 197.444 392.828 198.2C391.792 198.676 390.308 198.508 389.16 198.508V199.208C390.308 199.208 391.876 198.9 392.828 199.544ZM384.204 190.976V197.276H387.172C389.44 197.276 391.512 196.044 391.512 193.944C391.512 191.816 389.608 190.976 387.172 190.976H384.204ZM437.427 194.532L444.595 188.4H449.971L442.047 195.932L450.755 208H445.603L438.883 198.34L436.391 200.468V208H432.331V188.4H436.391V194.056C436.391 194.896 435.859 195.792 435.495 196.52L436.139 196.828C436.475 196.072 436.811 195.064 437.427 194.532ZM485.776 208V188.4H499.72V192.32H489.836V196.072H499.02V199.992H489.836V204.08H499.86V208H485.776ZM547.831 199.544C548.979 200.272 549.343 201.504 549.707 203.1C549.959 204.22 551.191 208 551.191 208H546.879C546.263 205.536 545.815 203.716 545.703 203.324C544.835 200.16 542.959 200.692 541.951 200.636H539.207V208H535.147V188.4H542.539C547.019 188.4 550.715 189.296 550.715 193.888C550.715 196.324 549.511 197.444 547.831 198.2C546.795 198.676 545.311 198.508 544.163 198.508V199.208C545.311 199.208 546.879 198.9 547.831 199.544ZM539.207 190.976V197.276H542.175C544.443 197.276 546.515 196.044 546.515 193.944C546.515 191.816 544.611 190.976 542.175 190.976H539.207Z" fill="#E4B61A"/>
</svg>
