<svg width="200" height="48" viewBox="0 0 200 48" fill="none" xmlns="http://www.w3.org/2000/svg">
<path d="M42.1246 28.3336C43.4399 28.3336 44.673 28.087 45.824 27.5937C46.9749 27.1005 47.982 26.4222 48.8452 25.559C49.7084 24.6958 50.3866 23.6888 50.8799 22.5378C51.3731 21.3869 51.6197 20.1538 51.6197 18.8384C51.6197 17.5231 51.3731 16.2899 50.8799 15.139C50.3866 13.9881 49.7084 12.981 48.8452 12.1178C47.982 11.2546 46.9749 10.5764 45.824 10.0831C44.673 9.58987 43.4399 9.34324 42.1246 9.34324H16.9068C15.5915 9.34324 14.3583 9.58987 13.2074 10.0831C12.0565 10.5764 11.0494 11.2546 10.1862 12.1178C9.32301 12.981 8.64479 13.9881 8.15153 15.139C7.65827 16.2899 7.41165 17.5231 7.41165 18.8384C7.41165 20.1538 7.65827 21.3869 8.15153 22.5378C8.64479 23.6888 9.32301 24.6958 10.1862 25.559C11.0494 26.4222 12.0565 27.1005 13.2074 27.5937C14.3583 28.087 15.5915 28.3336 16.9068 28.3336H25.6005C23.5452 30.4299 22.1271 32.8962 21.3461 35.7325H16.9068C14.5639 35.7325 12.3648 35.3009 10.3095 34.4377C8.2954 33.5334 6.50734 32.3208 4.94537 30.7999C3.42449 29.2379 2.2119 27.4499 1.3076 25.4357C0.444401 23.3805 0.0128021 21.1814 0.0128021 18.8384C0.0128021 16.4955 0.444401 14.2964 1.3076 12.2411C2.2119 10.1859 3.42449 8.39783 4.94537 6.87696C6.50734 5.35609 8.2954 4.16405 10.3095 3.30085C12.3648 2.39655 14.5639 1.9444 16.9068 1.9444H42.1246C44.4675 1.9444 46.6666 2.39655 48.7219 3.30085C50.7771 4.16405 52.5651 5.35609 54.086 6.87696C55.648 8.39783 56.8606 10.1859 57.7238 12.2411C58.6281 14.2964 59.0802 16.4955 59.0802 18.8384C59.0802 21.1814 58.6281 23.3805 57.7238 25.4357C56.8606 27.4499 55.648 29.2379 54.086 30.7999C52.5651 32.3208 50.7771 33.5334 48.7219 34.4377C46.6666 35.3009 44.4675 35.7325 42.1246 35.7325H38.3635C37.0481 35.7325 35.9177 36.1846 34.9723 37.0889C34.068 38.0343 33.6159 39.1647 33.6159 40.48H26.217C26.217 38.7948 26.5253 37.2122 27.1419 35.7325C27.7996 34.2527 28.6628 32.9784 29.7315 31.9097C30.8413 30.7999 32.1361 29.9367 33.6159 29.3201C35.0957 28.6624 36.6782 28.3336 38.3635 28.3336H42.1246Z" fill="#FAFFFF"/>
<path d="M69.9669 36.578C68.721 36.578 67.551 36.3501 66.4571 35.8943C65.3631 35.4081 64.4059 34.7699 63.5854 33.9798C62.7953 33.1594 62.1571 32.2021 61.6709 31.1082C61.2151 30.0142 60.9872 28.8443 60.9872 27.5983V18.6187H66.4571V27.5983C66.4571 28.5708 66.7913 29.4064 67.4599 30.1054C68.1588 30.7739 68.9945 31.1082 69.9669 31.1082H79.5847C80.5571 31.1082 81.3776 30.7739 82.0462 30.1054C82.7147 29.4064 83.049 28.5708 83.049 27.5983V18.6187H88.5644V27.5983C88.5644 28.8443 88.3213 30.0142 87.8351 31.1082C87.3793 32.2021 86.7411 33.1594 85.9206 33.9798C85.1002 34.7699 84.1429 35.4081 83.049 35.8943C81.955 36.3501 80.8002 36.578 79.5847 36.578H69.9669ZM95.9252 16.294H90.4554V13.1032H95.9252V16.294ZM90.4554 18.6187H95.9252V36.578H90.4554V18.6187ZM119.799 36.578L113.509 30.2877H103.982V36.578H98.5124V13.1032H103.982V24.909H113.509L119.799 18.6187H127.457L118.432 27.5983L127.457 36.578H119.799ZM132.402 36.578V4.67052H134.955V19.1656H155.147V4.67052H157.746V36.578H155.147V21.4448H134.955V36.578H132.402ZM162.896 13.787L171.42 32.658C171.739 33.3873 171.648 34.3901 171.648 35.165H172.241C172.241 34.3901 172.15 33.3873 172.469 32.658L180.993 13.787H183.272L173.38 36.5325C172.788 37.9455 172.241 39.0851 171.603 40.5437C169.779 44.9652 168.64 47.9736 164.446 47.9736H161.347V45.74H164.036C166.862 45.74 167.364 44.1447 168.777 41.0451L170.645 36.8515L160.617 13.787H162.896ZM188.447 16.1116C190.316 13.6046 192.002 13.1032 197.381 13.1032V15.4279C192.367 15.4279 187.672 16.9777 187.672 23.3136V36.578H185.302V13.787H187.672V15.9293C187.672 16.7954 187.262 17.8893 186.988 18.7554L187.535 18.9377C187.809 18.0717 187.945 16.8865 188.447 16.1116Z" fill="#FAFFFF"/>
</svg>
