<svg width="20" height="20" viewBox="0 0 20 20" fill="none" xmlns="http://www.w3.org/2000/svg">
<g id="solar:notification-unread-lines-linear" clip-path="url(#clip0_552_1453)">
<g id="Group">
<path id="Vector" d="M18.3334 8.74984V9.99984C18.3334 13.9282 18.3334 15.8923 17.1125 17.1123C15.8934 18.3332 13.9284 18.3332 10 18.3332C6.07169 18.3332 4.10752 18.3332 2.88669 17.1123C1.66669 15.8932 1.66669 13.9282 1.66669 9.99984C1.66669 6.0715 1.66669 4.10734 2.88669 2.8865C4.10835 1.6665 6.07169 1.6665 10 1.6665H11.25" stroke="#A0A4A6" stroke-width="1.5" stroke-linecap="round"/>
<path id="Vector_2" d="M15.8334 6.6665C17.2141 6.6665 18.3334 5.54722 18.3334 4.1665C18.3334 2.78579 17.2141 1.6665 15.8334 1.6665C14.4527 1.6665 13.3334 2.78579 13.3334 4.1665C13.3334 5.54722 14.4527 6.6665 15.8334 6.6665Z" stroke="#A0A4A6" stroke-width="1.5"/>
<path id="Vector_3" d="M5.83337 11.6665H13.3334M5.83337 14.5832H10.8334" stroke="#A0A4A6" stroke-width="1.5" stroke-linecap="round"/>
</g>
</g>
<defs>
<clipPath id="clip0_552_1453">
<rect width="20" height="20" fill="white"/>
</clipPath>
</defs>
</svg>
