<svg width="24" height="24" viewBox="0 0 24 24" fill="none" xmlns="http://www.w3.org/2000/svg">
<path d="M18 6C18 5.46957 18.2107 4.96086 18.5858 4.58579C18.9609 4.21071 19.4696 4 20 4C20.5304 4 21.0391 4.21071 21.4142 4.58579C21.7893 4.96086 22 5.46957 22 6V17C22 17.5304 21.7893 18.0391 21.4142 18.4142C21.0391 18.7893 20.5304 19 20 19C19.4696 19 18.9609 18.7893 18.5858 18.4142C18.2107 18.0391 18 17.5304 18 17V6Z" fill="#FAFFFF" fill-opacity="0.64"/>
<path opacity="0.5" d="M16.5 6H7.5V17H16.5V6Z" fill="#FAFFFF" fill-opacity="0.64"/>
<path d="M2 6C2 5.46957 2.21071 4.96086 2.58579 4.58579C2.96086 4.21071 3.46957 4 4 4C4.53043 4 5.03914 4.21071 5.41421 4.58579C5.78929 4.96086 6 5.46957 6 6V17C6 17.5304 5.78929 18.0391 5.41421 18.4142C5.03914 18.7893 4.53043 19 4 19C3.46957 19 2.96086 18.7893 2.58579 18.4142C2.21071 18.0391 2 17.5304 2 17V6Z" fill="#FAFFFF" fill-opacity="0.64"/>
</svg>
