<svg width="312" height="312" viewBox="0 0 312 312" fill="none" xmlns="http://www.w3.org/2000/svg">
<g clip-path="url(#clip0_552_3790)">
<path d="M312 0H0V312H312V0Z" fill="white"/>
<path d="M29.3333 16H16V29.3333H29.3333V16Z" fill="black"/>
<path d="M42.6667 16H29.3333V29.3333H42.6667V16Z" fill="black"/>
<path d="M56 16H42.6667V29.3333H56V16Z" fill="black"/>
<path d="M69.3333 16H56V29.3333H69.3333V16Z" fill="black"/>
<path d="M82.6667 16H69.3333V29.3333H82.6667V16Z" fill="black"/>
<path d="M96 16H82.6667V29.3333H96V16Z" fill="black"/>
<path d="M109.333 16H96V29.3333H109.333V16Z" fill="black"/>
<path d="M136 16H122.667V29.3333H136V16Z" fill="black"/>
<path d="M216 16H202.667V29.3333H216V16Z" fill="black"/>
<path d="M229.333 16H216V29.3333H229.333V16Z" fill="black"/>
<path d="M242.667 16H229.333V29.3333H242.667V16Z" fill="black"/>
<path d="M256 16H242.667V29.3333H256V16Z" fill="black"/>
<path d="M269.333 16H256V29.3333H269.333V16Z" fill="black"/>
<path d="M282.667 16H269.333V29.3333H282.667V16Z" fill="black"/>
<path d="M296 16H282.667V29.3333H296V16Z" fill="black"/>
<path d="M29.3333 29.3333H16V42.6667H29.3333V29.3333Z" fill="black"/>
<path d="M109.333 29.3333H96V42.6667H109.333V29.3333Z" fill="black"/>
<path d="M162.667 29.3333H149.333V42.6667H162.667V29.3333Z" fill="black"/>
<path d="M176 29.3333H162.667V42.6667H176V29.3333Z" fill="black"/>
<path d="M216 29.3333H202.667V42.6667H216V29.3333Z" fill="black"/>
<path d="M296 29.3333H282.667V42.6667H296V29.3333Z" fill="black"/>
<path d="M29.3333 42.6667H16V56H29.3333V42.6667Z" fill="black"/>
<path d="M56 42.6667H42.6667V56H56V42.6667Z" fill="black"/>
<path d="M69.3333 42.6667H56V56H69.3333V42.6667Z" fill="black"/>
<path d="M82.6667 42.6667H69.3333V56H82.6667V42.6667Z" fill="black"/>
<path d="M109.333 42.6667H96V56H109.333V42.6667Z" fill="black"/>
<path d="M136 42.6667H122.667V56H136V42.6667Z" fill="black"/>
<path d="M216 42.6667H202.667V56H216V42.6667Z" fill="black"/>
<path d="M242.667 42.6667H229.333V56H242.667V42.6667Z" fill="black"/>
<path d="M256 42.6667H242.667V56H256V42.6667Z" fill="black"/>
<path d="M269.333 42.6667H256V56H269.333V42.6667Z" fill="black"/>
<path d="M296 42.6667H282.667V56H296V42.6667Z" fill="black"/>
<path d="M29.3333 56H16V69.3333H29.3333V56Z" fill="black"/>
<path d="M56 56H42.6667V69.3333H56V56Z" fill="black"/>
<path d="M69.3333 56H56V69.3333H69.3333V56Z" fill="black"/>
<path d="M82.6667 56H69.3333V69.3333H82.6667V56Z" fill="black"/>
<path d="M109.333 56H96V69.3333H109.333V56Z" fill="black"/>
<path d="M136 56H122.667V69.3333H136V56Z" fill="black"/>
<path d="M149.333 56H136V69.3333H149.333V56Z" fill="black"/>
<path d="M176 56H162.667V69.3333H176V56Z" fill="black"/>
<path d="M216 56H202.667V69.3333H216V56Z" fill="black"/>
<path d="M242.667 56H229.333V69.3333H242.667V56Z" fill="black"/>
<path d="M256 56H242.667V69.3333H256V56Z" fill="black"/>
<path d="M269.333 56H256V69.3333H269.333V56Z" fill="black"/>
<path d="M296 56H282.667V69.3333H296V56Z" fill="black"/>
<path d="M29.3333 69.3333H16V82.6667H29.3333V69.3333Z" fill="black"/>
<path d="M56 69.3333H42.6667V82.6667H56V69.3333Z" fill="black"/>
<path d="M69.3333 69.3333H56V82.6667H69.3333V69.3333Z" fill="black"/>
<path d="M82.6667 69.3333H69.3333V82.6667H82.6667V69.3333Z" fill="black"/>
<path d="M109.333 69.3333H96V82.6667H109.333V69.3333Z" fill="black"/>
<path d="M136 69.3333H122.667V82.6667H136V69.3333Z" fill="black"/>
<path d="M149.333 69.3333H136V82.6667H149.333V69.3333Z" fill="black"/>
<path d="M162.667 69.3333H149.333V82.6667H162.667L162.667 69.3333Z" fill="black"/>
<path d="M176 69.3333H162.667L162.667 82.6667H176V69.3333Z" fill="black"/>
<path d="M189.333 69.3333H176V82.6667H189.333V69.3333Z" fill="black"/>
<path d="M216 69.3333H202.667V82.6667H216V69.3333Z" fill="black"/>
<path d="M242.667 69.3333H229.333V82.6667H242.667V69.3333Z" fill="black"/>
<path d="M256 69.3333H242.667V82.6667H256V69.3333Z" fill="black"/>
<path d="M269.333 69.3333H256V82.6667H269.333V69.3333Z" fill="black"/>
<path d="M296 69.3333H282.667V82.6667H296V69.3333Z" fill="black"/>
<path d="M29.3333 82.6667H16V96H29.3333V82.6667Z" fill="black"/>
<path d="M109.333 82.6667H96V96H109.333V82.6667Z" fill="black"/>
<path d="M136 82.6667H122.667V96H136V82.6667Z" fill="black"/>
<path d="M162.667 82.6667H149.333L149.333 96H162.667V82.6667Z" fill="black"/>
<path d="M216 82.6667H202.667V96H216V82.6667Z" fill="black"/>
<path d="M296 82.6667H282.667V96H296V82.6667Z" fill="black"/>
<path d="M29.3333 96H16V109.333H29.3333V96Z" fill="black"/>
<path d="M42.6667 96H29.3333V109.333H42.6667V96Z" fill="black"/>
<path d="M56 96H42.6667V109.333H56V96Z" fill="black"/>
<path d="M69.3333 96H56V109.333H69.3333V96Z" fill="black"/>
<path d="M82.6667 96H69.3333V109.333H82.6667V96Z" fill="black"/>
<path d="M96 96H82.6667V109.333H96V96Z" fill="black"/>
<path d="M109.333 96H96V109.333H109.333V96Z" fill="black"/>
<path d="M136 96H122.667V109.333H136V96Z" fill="black"/>
<path d="M162.667 96H149.333V109.333H162.667V96Z" fill="black"/>
<path d="M189.333 96H176V109.333H189.333V96Z" fill="black"/>
<path d="M216 96H202.667V109.333H216V96Z" fill="black"/>
<path d="M229.333 96H216V109.333H229.333V96Z" fill="black"/>
<path d="M242.667 96H229.333V109.333H242.667V96Z" fill="black"/>
<path d="M256 96H242.667V109.333H256V96Z" fill="black"/>
<path d="M269.333 96H256V109.333H269.333V96Z" fill="black"/>
<path d="M282.667 96H269.333V109.333H282.667V96Z" fill="black"/>
<path d="M296 96H282.667V109.333H296V96Z" fill="black"/>
<path d="M162.667 109.333H149.333V122.667H162.667V109.333Z" fill="black"/>
<path d="M189.333 109.333H176V122.667H189.333V109.333Z" fill="black"/>
<path d="M56 122.667H42.6667V136H56V122.667Z" fill="black"/>
<path d="M69.3333 122.667H56V136H69.3333V122.667Z" fill="black"/>
<path d="M82.6667 122.667H69.3333V136H82.6667V122.667Z" fill="black"/>
<path d="M96 122.667H82.6667V136H96V122.667Z" fill="black"/>
<path d="M109.333 122.667H96V136H109.333V122.667Z" fill="black"/>
<path d="M122.667 122.667H109.333V136H122.667V122.667Z" fill="black"/>
<path d="M176 122.667H162.667L162.667 136H176V122.667Z" fill="black"/>
<path d="M189.333 122.667H176V136H189.333V122.667Z" fill="black"/>
<path d="M202.667 122.667L189.333 122.667V136H202.667V122.667Z" fill="black"/>
<path d="M229.333 122.667H216V136H229.333V122.667Z" fill="black"/>
<path d="M242.667 122.667H229.333V136H242.667V122.667Z" fill="black"/>
<path d="M256 122.667H242.667V136H256V122.667Z" fill="black"/>
<path d="M269.333 122.667H256V136H269.333V122.667Z" fill="black"/>
<path d="M296 122.667H282.667V136H296V122.667Z" fill="black"/>
<path d="M29.3333 136H16V149.333H29.3333V136Z" fill="black"/>
<path d="M42.6667 136L29.3333 136V149.333H42.6667V136Z" fill="black"/>
<path d="M56 136H42.6667V149.333H56V136Z" fill="black"/>
<path d="M69.3333 136H56V149.333H69.3333V136Z" fill="black"/>
<path d="M82.6667 136H69.3333V149.333H82.6667V136Z" fill="black"/>
<path d="M122.667 136H109.333V149.333H122.667V136Z" fill="black"/>
<path d="M149.333 136H136V149.333H149.333V136Z" fill="black"/>
<path d="M162.667 136L149.333 136V149.333H162.667L162.667 136Z" fill="black"/>
<path d="M176 136H162.667L162.667 149.333H176V136Z" fill="black"/>
<path d="M202.667 136H189.333V149.333H202.667V136Z" fill="black"/>
<path d="M229.333 136H216V149.333H229.333V136Z" fill="black"/>
<path d="M242.667 136H229.333V149.333H242.667V136Z" fill="black"/>
<path d="M269.333 136H256V149.333H269.333V136Z" fill="black"/>
<path d="M296 136H282.667V149.333H296V136Z" fill="black"/>
<path d="M42.6667 149.333H29.3333V162.667H42.6667V149.333Z" fill="black"/>
<path d="M69.3333 149.333H56V162.667H69.3333V149.333Z" fill="black"/>
<path d="M109.333 149.333L96 149.333V162.667H109.333V149.333Z" fill="black"/>
<path d="M162.667 149.333H149.333L149.333 162.667H162.667V149.333Z" fill="black"/>
<path d="M229.333 149.333H216V162.667H229.333V149.333Z" fill="black"/>
<path d="M256 149.333H242.667V162.667H256V149.333Z" fill="black"/>
<path d="M29.3333 162.667L16 162.667V176H29.3333V162.667Z" fill="black"/>
<path d="M42.6667 162.667H29.3333V176H42.6667V162.667Z" fill="black"/>
<path d="M56 162.667H42.6667V176H56V162.667Z" fill="black"/>
<path d="M69.3333 162.667H56V176H69.3333V162.667Z" fill="black"/>
<path d="M96 162.667L82.6667 162.667V176H96V162.667Z" fill="black"/>
<path d="M136 162.667H122.667V176H136V162.667Z" fill="black"/>
<path d="M149.333 162.667L136 162.667V176H149.333L149.333 162.667Z" fill="black"/>
<path d="M176 162.667L162.667 162.667L162.667 176H176V162.667Z" fill="black"/>
<path d="M216 162.667L202.667 162.667V176H216V162.667Z" fill="black"/>
<path d="M242.667 162.667H229.333V176H242.667V162.667Z" fill="black"/>
<path d="M256 162.667H242.667V176H256V162.667Z" fill="black"/>
<path d="M282.667 162.667H269.333V176H282.667V162.667Z" fill="black"/>
<path d="M29.3333 176H16V189.333H29.3333V176Z" fill="black"/>
<path d="M56 176H42.6667V189.333H56V176Z" fill="black"/>
<path d="M82.6667 176H69.3333V189.333H82.6667V176Z" fill="black"/>
<path d="M109.333 176H96V189.333H109.333V176Z" fill="black"/>
<path d="M149.333 176H136L136 189.333H149.333V176Z" fill="black"/>
<path d="M162.667 176H149.333V189.333H162.667L162.667 176Z" fill="black"/>
<path d="M176 176H162.667L162.667 189.333H176V176Z" fill="black"/>
<path d="M189.333 176H176V189.333H189.333V176Z" fill="black"/>
<path d="M202.667 176H189.333V189.333H202.667V176Z" fill="black"/>
<path d="M256 176H242.667V189.333H256V176Z" fill="black"/>
<path d="M269.333 176H256V189.333H269.333V176Z" fill="black"/>
<path d="M282.667 176H269.333V189.333H282.667V176Z" fill="black"/>
<path d="M296 176H282.667V189.333H296V176Z" fill="black"/>
<path d="M149.333 189.333H136V202.667H149.333V189.333Z" fill="black"/>
<path d="M176 189.333H162.667L162.667 202.667H176V189.333Z" fill="black"/>
<path d="M216 189.333H202.667V202.667H216V189.333Z" fill="black"/>
<path d="M242.667 189.333H229.333V202.667H242.667V189.333Z" fill="black"/>
<path d="M256 189.333H242.667V202.667H256V189.333Z" fill="black"/>
<path d="M282.667 189.333H269.333V202.667H282.667V189.333Z" fill="black"/>
<path d="M29.3333 202.667H16V216H29.3333V202.667Z" fill="black"/>
<path d="M42.6667 202.667H29.3333V216H42.6667V202.667Z" fill="black"/>
<path d="M56 202.667H42.6667V216H56V202.667Z" fill="black"/>
<path d="M69.3333 202.667H56V216H69.3333V202.667Z" fill="black"/>
<path d="M82.6667 202.667H69.3333V216H82.6667V202.667Z" fill="black"/>
<path d="M96 202.667H82.6667V216H96V202.667Z" fill="black"/>
<path d="M109.333 202.667H96V216H109.333V202.667Z" fill="black"/>
<path d="M136 202.667H122.667V216H136L136 202.667Z" fill="black"/>
<path d="M149.333 202.667H136L136 216H149.333V202.667Z" fill="black"/>
<path d="M162.667 202.667H149.333V216H162.667L162.667 202.667Z" fill="black"/>
<path d="M176 202.667H162.667L162.667 216H176V202.667Z" fill="black"/>
<path d="M256 202.667H242.667V216H256V202.667Z" fill="black"/>
<path d="M269.333 202.667H256V216H269.333V202.667Z" fill="black"/>
<path d="M282.667 202.667H269.333V216H282.667V202.667Z" fill="black"/>
<path d="M29.3333 216H16V229.333H29.3333V216Z" fill="black"/>
<path d="M109.333 216H96V229.333H109.333V216Z" fill="black"/>
<path d="M136 216H122.667V229.333H136V216Z" fill="black"/>
<path d="M149.333 216H136V229.333H149.333V216Z" fill="black"/>
<path d="M162.667 216H149.333V229.333H162.667V216Z" fill="black"/>
<path d="M176 216H162.667V229.333H176V216Z" fill="black"/>
<path d="M189.333 216H176V229.333H189.333V216Z" fill="black"/>
<path d="M242.667 216H229.333V229.333H242.667V216Z" fill="black"/>
<path d="M282.667 216H269.333V229.333H282.667V216Z" fill="black"/>
<path d="M296 216H282.667V229.333H296V216Z" fill="black"/>
<path d="M29.3333 229.333H16V242.667H29.3333V229.333Z" fill="black"/>
<path d="M56 229.333H42.6667V242.667H56V229.333Z" fill="black"/>
<path d="M69.3333 229.333H56V242.667H69.3333V229.333Z" fill="black"/>
<path d="M82.6667 229.333H69.3333V242.667H82.6667V229.333Z" fill="black"/>
<path d="M109.333 229.333H96V242.667H109.333V229.333Z" fill="black"/>
<path d="M136 229.333H122.667V242.667H136V229.333Z" fill="black"/>
<path d="M176 229.333H162.667L162.667 242.667H176V229.333Z" fill="black"/>
<path d="M202.667 229.333H189.333V242.667H202.667V229.333Z" fill="black"/>
<path d="M242.667 229.333H229.333V242.667H242.667V229.333Z" fill="black"/>
<path d="M256 229.333H242.667V242.667H256V229.333Z" fill="black"/>
<path d="M296 229.333H282.667V242.667H296V229.333Z" fill="black"/>
<path d="M29.3333 242.667H16V256H29.3333V242.667Z" fill="black"/>
<path d="M56 242.667H42.6667V256H56V242.667Z" fill="black"/>
<path d="M69.3333 242.667H56V256H69.3333V242.667Z" fill="black"/>
<path d="M82.6667 242.667H69.3333V256H82.6667V242.667Z" fill="black"/>
<path d="M109.333 242.667H96V256H109.333V242.667Z" fill="black"/>
<path d="M136 242.667H122.667V256H136V242.667Z" fill="black"/>
<path d="M149.333 242.667H136V256H149.333V242.667Z" fill="black"/>
<path d="M162.667 242.667H149.333V256H162.667L162.667 242.667Z" fill="black"/>
<path d="M176 242.667H162.667L162.667 256H176V242.667Z" fill="black"/>
<path d="M216 242.667H202.667V256H216V242.667Z" fill="black"/>
<path d="M229.333 242.667H216V256H229.333V242.667Z" fill="black"/>
<path d="M269.333 242.667H256V256H269.333V242.667Z" fill="black"/>
<path d="M282.667 242.667H269.333V256H282.667V242.667Z" fill="black"/>
<path d="M29.3333 256H16V269.333H29.3333V256Z" fill="black"/>
<path d="M56 256H42.6667V269.333H56V256Z" fill="black"/>
<path d="M69.3333 256H56V269.333H69.3333V256Z" fill="black"/>
<path d="M82.6667 256H69.3333V269.333H82.6667V256Z" fill="black"/>
<path d="M109.333 256H96V269.333H109.333V256Z" fill="black"/>
<path d="M136 256H122.667V269.333H136V256Z" fill="black"/>
<path d="M149.333 256H136V269.333H149.333V256Z" fill="black"/>
<path d="M162.667 256H149.333V269.333H162.667V256Z" fill="black"/>
<path d="M176 256H162.667V269.333H176V256Z" fill="black"/>
<path d="M216 256H202.667V269.333H216V256Z" fill="black"/>
<path d="M229.333 256H216V269.333H229.333V256Z" fill="black"/>
<path d="M282.667 256H269.333V269.333H282.667V256Z" fill="black"/>
<path d="M296 256H282.667V269.333H296V256Z" fill="black"/>
<path d="M29.3333 269.333H16V282.667H29.3333V269.333Z" fill="black"/>
<path d="M109.333 269.333H96V282.667H109.333V269.333Z" fill="black"/>
<path d="M149.333 269.333H136L136 282.667H149.333V269.333Z" fill="black"/>
<path d="M162.667 269.333H149.333V282.667H162.667V269.333Z" fill="black"/>
<path d="M176 269.333H162.667V282.667H176V269.333Z" fill="black"/>
<path d="M202.667 269.333H189.333V282.667H202.667V269.333Z" fill="black"/>
<path d="M216 269.333H202.667V282.667H216V269.333Z" fill="black"/>
<path d="M229.333 269.333H216V282.667H229.333V269.333Z" fill="black"/>
<path d="M242.667 269.333H229.333V282.667H242.667V269.333Z" fill="black"/>
<path d="M296 269.333H282.667V282.667H296V269.333Z" fill="black"/>
<path d="M29.3333 282.667H16V296H29.3333V282.667Z" fill="black"/>
<path d="M42.6667 282.667H29.3333V296H42.6667V282.667Z" fill="black"/>
<path d="M56 282.667H42.6667V296H56V282.667Z" fill="black"/>
<path d="M69.3333 282.667H56V296H69.3333V282.667Z" fill="black"/>
<path d="M82.6667 282.667H69.3333V296H82.6667V282.667Z" fill="black"/>
<path d="M96 282.667H82.6667V296H96V282.667Z" fill="black"/>
<path d="M109.333 282.667H96V296H109.333V282.667Z" fill="black"/>
<path d="M149.333 282.667H136V296H149.333V282.667Z" fill="black"/>
<path d="M229.333 282.667H216V296H229.333V282.667Z" fill="black"/>
</g>
<defs>
<clipPath id="clip0_552_3790">
<rect width="312" height="312" rx="16" fill="white"/>
</clipPath>
</defs>
</svg>
