<svg width="24" height="24" viewBox="0 0 24 24" fill="none" xmlns="http://www.w3.org/2000/svg">
<path d="M8 21H4C3.73478 21 3.48043 20.8946 3.29289 20.7071C3.10536 20.5196 3 20.2652 3 20V16C3 15.7348 2.89464 15.4804 2.70711 15.2929C2.51957 15.1054 2.26522 15 2 15C1.73478 15 1.48043 15.1054 1.29289 15.2929C1.10536 15.4804 1 15.7348 1 16V20C1 20.7957 1.31607 21.5587 1.87868 22.1213C2.44129 22.6839 3.20435 23 4 23H8C8.26522 23 8.51957 22.8946 8.70711 22.7071C8.89464 22.5196 9 22.2652 9 22C9 21.7348 8.89464 21.4804 8.70711 21.2929C8.51957 21.1054 8.26522 21 8 21ZM22 15C21.7348 15 21.4804 15.1054 21.2929 15.2929C21.1054 15.4804 21 15.7348 21 16V20C21 20.2652 20.8946 20.5196 20.7071 20.7071C20.5196 20.8946 20.2652 21 20 21H16C15.7348 21 15.4804 21.1054 15.2929 21.2929C15.1054 21.4804 15 21.7348 15 22C15 22.2652 15.1054 22.5196 15.2929 22.7071C15.4804 22.8946 15.7348 23 16 23H20C20.7957 23 21.5587 22.6839 22.1213 22.1213C22.6839 21.5587 23 20.7957 23 20V16C23 15.7348 22.8946 15.4804 22.7071 15.2929C22.5196 15.1054 22.2652 15 22 15ZM20 1H16C15.7348 1 15.4804 1.10536 15.2929 1.29289C15.1054 1.48043 15 1.73478 15 2C15 2.26522 15.1054 2.51957 15.2929 2.70711C15.4804 2.89464 15.7348 3 16 3H20C20.2652 3 20.5196 3.10536 20.7071 3.29289C20.8946 3.48043 21 3.73478 21 4V8C21 8.26522 21.1054 8.51957 21.2929 8.70711C21.4804 8.89464 21.7348 9 22 9C22.2652 9 22.5196 8.89464 22.7071 8.70711C22.8946 8.51957 23 8.26522 23 8V4C23 3.20435 22.6839 2.44129 22.1213 1.87868C21.5587 1.31607 20.7957 1 20 1ZM2 9C2.26522 9 2.51957 8.89464 2.70711 8.70711C2.89464 8.51957 3 8.26522 3 8V4C3 3.73478 3.10536 3.48043 3.29289 3.29289C3.48043 3.10536 3.73478 3 4 3H8C8.26522 3 8.51957 2.89464 8.70711 2.70711C8.89464 2.51957 9 2.26522 9 2C9 1.73478 8.89464 1.48043 8.70711 1.29289C8.51957 1.10536 8.26522 1 8 1H4C3.20435 1 2.44129 1.31607 1.87868 1.87868C1.31607 2.44129 1 3.20435 1 4V8C1 8.26522 1.10536 8.51957 1.29289 8.70711C1.48043 8.89464 1.73478 9 2 9Z" fill="#FAFFFF"/>
<path d="M5.89453 14.9254C5.89453 14.1314 5.89453 13.7351 6.07332 13.4435C6.17324 13.2805 6.31031 13.1435 6.47333 13.0435C6.76425 12.8647 7.16183 12.8647 7.95518 12.8647H8.62186C9.76491 12.8647 10.3358 12.8647 10.691 13.2199C11.0462 13.5751 11.0462 14.146 11.0462 15.289V15.9557C11.0462 16.7497 11.0462 17.146 10.8674 17.4376C10.7674 17.6006 10.6304 17.7377 10.4674 17.8376C10.1764 18.0164 9.77885 18.0164 8.9855 18.0164C7.79518 18.0164 7.20001 18.0164 6.76303 17.7485C6.51851 17.5986 6.3129 17.393 6.16302 17.1485C5.89453 16.7103 5.89453 16.1157 5.89453 14.9254Z" stroke="#FAFFFF" stroke-width="1.3125"/>
<path d="M13.5771 7.95542C13.5771 7.16147 13.5771 6.7651 13.7559 6.47357C13.8559 6.31056 13.9929 6.17349 14.1559 6.07357C14.4469 5.89478 14.8444 5.89478 15.6378 5.89478C16.8281 5.89478 17.4233 5.89478 17.8609 6.16266C18.1054 6.31254 18.311 6.51814 18.4609 6.76267C18.7288 7.20086 18.7288 7.79603 18.7288 8.98575C18.7288 9.7797 18.7288 10.1761 18.55 10.4676C18.4501 10.6306 18.313 10.7677 18.15 10.8676C17.8591 11.0464 17.4615 11.0464 16.6681 11.0464H16.0014C14.8584 11.0464 14.2875 11.0464 13.9323 10.6912C13.5771 10.3361 13.5771 9.76516 13.5771 8.6221V7.95542Z" stroke="#FAFFFF" stroke-width="1.3125"/>
<path d="M15.3948 8.47048C15.3948 8.15835 15.3948 8.00199 15.4736 7.89168C15.5011 7.85277 15.5349 7.81876 15.5736 7.79107C15.6839 7.71289 15.8403 7.71289 16.1524 7.71289C16.4646 7.71289 16.6209 7.71289 16.7312 7.79168C16.7701 7.81913 16.8042 7.85294 16.8318 7.89168C16.91 8.00199 16.91 8.15835 16.91 8.47048C16.91 8.78261 16.91 8.93898 16.8312 9.04928C16.8038 9.08819 16.77 9.1222 16.7312 9.14989C16.6209 9.22807 16.4646 9.22807 16.1524 9.22807C15.8403 9.22807 15.6839 9.22807 15.5736 9.14928C15.5347 9.12183 15.5007 9.08803 15.473 9.04928C15.3948 8.93898 15.3948 8.78261 15.3948 8.47048ZM13.1221 18.0161C13.1221 18.1367 13.17 18.2523 13.2552 18.3376C13.3405 18.4228 13.4561 18.4707 13.5766 18.4707C13.6972 18.4707 13.8128 18.4228 13.898 18.3376C13.9833 18.2523 14.0312 18.1367 14.0312 18.0161H13.1221ZM16.91 12.41H15.6979V13.3191H16.91V12.41ZM13.1221 16.1979V18.0161H14.0312V16.1979H13.1221ZM15.6979 12.41C15.2815 12.41 14.9354 12.41 14.656 12.4378C14.3688 12.4669 14.1027 12.5306 13.8627 12.6912L14.3682 13.4469C14.4336 13.4027 14.533 13.3639 14.7482 13.3421C14.9706 13.3197 15.2633 13.3191 15.6979 13.3191V12.41ZM14.0312 14.9858C14.0312 14.5506 14.0312 14.2585 14.0542 14.0361C14.076 13.8209 14.1148 13.7215 14.1591 13.656L13.4033 13.1506C13.2433 13.3906 13.179 13.6566 13.15 13.9439C13.1215 14.2233 13.1221 14.5694 13.1221 14.9858H14.0312ZM13.8627 12.6912C13.6809 12.8124 13.5245 12.9688 13.4033 13.1506L14.1591 13.656C14.2143 13.5733 14.2854 13.5022 14.3682 13.4469L13.8627 12.6912ZM19.1828 12.8645C19.1828 12.744 19.1349 12.6283 19.0497 12.5431C18.9644 12.4578 18.8488 12.41 18.7282 12.41C18.6077 12.41 18.4921 12.4578 18.4068 12.5431C18.3216 12.6283 18.2737 12.744 18.2737 12.8645H19.1828ZM15.6979 18.4707H16.91V17.5616H15.6979V18.4707ZM19.1828 14.9858V12.8645H18.2737V14.9858H19.1828ZM16.91 18.4707C17.1864 18.4707 17.4161 18.4707 17.604 18.4586C17.7961 18.4452 17.9779 18.4174 18.1537 18.344L17.8058 17.504C17.7591 17.5234 17.6882 17.541 17.5422 17.5513C17.3925 17.5616 17.1985 17.5616 16.91 17.5616V18.4707ZM18.2737 16.1979C18.2737 16.4864 18.2737 16.6803 18.2634 16.83C18.2531 16.9761 18.2355 17.047 18.2161 17.0937L19.0561 17.4416C19.1289 17.2658 19.1573 17.084 19.1701 16.8919C19.1828 16.704 19.1828 16.4737 19.1828 16.1979H18.2737ZM18.1537 18.344C18.356 18.2603 18.5398 18.137 18.6946 17.9823C18.8495 17.8275 18.9723 17.6438 19.0561 17.4416L18.2161 17.0937C18.178 17.1857 18.1222 17.2693 18.0518 17.3397C17.9814 17.4101 17.8978 17.4659 17.8058 17.504L18.1537 18.344Z" fill="#FAFFFF"/>
<path d="M5.89453 8.98575C5.89453 7.79542 5.89453 7.20026 6.16242 6.76328C6.3123 6.51875 6.5179 6.31315 6.76243 6.16327C7.20062 5.89478 7.79578 5.89478 8.9855 5.89478C9.77946 5.89478 10.1758 5.89478 10.4674 6.07357C10.6304 6.17349 10.7674 6.31056 10.8674 6.47358C11.0462 6.76449 11.0462 7.16207 11.0462 7.95542V8.6221C11.0462 9.76516 11.0462 10.3361 10.691 10.6912C10.3358 11.0464 9.76491 11.0464 8.62186 11.0464H7.95518C7.16122 11.0464 6.76485 11.0464 6.47333 10.8676C6.31031 10.7677 6.17324 10.6306 6.07332 10.4676C5.89453 10.1767 5.89453 9.7791 5.89453 8.98575Z" stroke="#FAFFFF" stroke-width="1.3125"/>
<path d="M15.0918 15.4405C15.0918 15.015 15.0918 14.8023 15.1942 14.649C15.2383 14.5831 15.295 14.5264 15.3609 14.4823C15.5142 14.3799 15.727 14.3799 16.1524 14.3799C16.5779 14.3799 16.7906 14.3799 16.944 14.4823C17.0099 14.5264 17.0665 14.5831 17.1106 14.649C17.2131 14.8023 17.2131 15.015 17.2131 15.4405C17.2131 15.866 17.2131 16.0787 17.1106 16.232C17.0665 16.298 17.0099 16.3546 16.944 16.3987C16.7906 16.5011 16.5779 16.5011 16.1524 16.5011C15.727 16.5011 15.5142 16.5011 15.3609 16.3987C15.295 16.3546 15.2383 16.298 15.1942 16.232C15.0918 16.0787 15.0918 15.866 15.0918 15.4405Z" fill="#FAFFFF"/>
<path d="M7.71289 8.47048C7.71289 8.15835 7.71289 8.00199 7.79168 7.89168C7.81913 7.85277 7.85294 7.81876 7.89168 7.79107C8.00199 7.71289 8.15835 7.71289 8.47048 7.71289C8.78261 7.71289 8.93898 7.71289 9.04928 7.79168C9.08819 7.81913 9.1222 7.85294 9.14989 7.89168C9.22807 8.00199 9.22807 8.15835 9.22807 8.47048C9.22807 8.78261 9.22807 8.93898 9.14928 9.04928C9.12183 9.08819 9.08803 9.1222 9.04928 9.14989C8.93898 9.22807 8.78261 9.22807 8.47048 9.22807C8.15835 9.22807 8.00199 9.22807 7.89168 9.14928C7.85277 9.12183 7.81876 9.08803 7.79107 9.04928C7.71289 8.93898 7.71289 8.78261 7.71289 8.47048ZM7.71289 15.4403C7.71289 15.1282 7.71289 14.9718 7.79168 14.8615C7.81913 14.8226 7.85294 14.7886 7.89168 14.7609C8.00199 14.6827 8.15835 14.6827 8.47048 14.6827C8.78261 14.6827 8.93898 14.6827 9.04928 14.7615C9.08819 14.789 9.1222 14.8228 9.14989 14.8615C9.22807 14.9718 9.22807 15.1282 9.22807 15.4403C9.22807 15.7524 9.22807 15.9088 9.14928 16.0191C9.12183 16.058 9.08803 16.092 9.04928 16.1197C8.93898 16.1979 8.78261 16.1979 8.47048 16.1979C8.15835 16.1979 8.00199 16.1979 7.89168 16.1191C7.85277 16.0917 7.81876 16.0579 7.79107 16.0191C7.71289 15.9088 7.71289 15.7524 7.71289 15.4403Z" fill="#FAFFFF"/>
</svg>
