<svg width="132" height="23" viewBox="0 0 132 23" fill="none" xmlns="http://www.w3.org/2000/svg">
<path d="M24.5573 15.8622C25.3243 15.8622 26.0434 15.7183 26.7146 15.4307C27.3858 15.143 27.973 14.7475 28.4764 14.2442C28.9798 13.7408 29.3753 13.1535 29.6629 12.4824C29.9506 11.8112 30.0944 11.0921 30.0944 10.3251C30.0944 9.55803 29.9506 8.83893 29.6629 8.16777C29.3753 7.49661 28.9798 6.90934 28.4764 6.40597C27.973 5.9026 27.3858 5.50709 26.7146 5.21945C26.0434 4.93181 25.3243 4.78799 24.5573 4.78799H9.85169C9.08465 4.78799 8.36554 4.93181 7.69438 5.21945C7.02322 5.50709 6.43596 5.9026 5.93258 6.40597C5.42921 6.90934 5.03371 7.49661 4.74607 8.16777C4.45843 8.83893 4.31461 9.55803 4.31461 10.3251C4.31461 11.0921 4.45843 11.8112 4.74607 12.4824C5.03371 13.1535 5.42921 13.7408 5.93258 14.2442C6.43596 14.7475 7.02322 15.143 7.69438 15.4307C8.36554 15.7183 9.08465 15.8622 9.85169 15.8622H14.9214C13.7228 17.0846 12.8959 18.5228 12.4405 20.1768H9.85169C8.48539 20.1768 7.203 19.9251 6.0045 19.4217C4.82996 18.8944 3.78727 18.1872 2.8764 17.3004C1.98951 16.3895 1.2824 15.3468 0.755056 14.1723C0.251685 12.9738 0 11.6914 0 10.3251C0 8.95878 0.251685 7.67638 0.755056 6.47788C1.2824 5.27938 1.98951 4.23668 2.8764 3.34979C3.78727 2.4629 4.82996 1.76777 6.0045 1.2644C7.203 0.737055 8.48539 0.473384 9.85169 0.473384H24.5573C25.9236 0.473384 27.206 0.737055 28.4045 1.2644C29.603 1.76777 30.6457 2.4629 31.5326 3.34979C32.4434 4.23668 33.1506 5.27938 33.6539 6.47788C34.1813 7.67638 34.4449 8.95878 34.4449 10.3251C34.4449 11.6914 34.1813 12.9738 33.6539 14.1723C33.1506 15.3468 32.4434 16.3895 31.5326 17.3004C30.6457 18.1872 29.603 18.8944 28.4045 19.4217C27.206 19.9251 25.9236 20.1768 24.5573 20.1768H22.364C21.597 20.1768 20.9378 20.4404 20.3865 20.9678C19.8592 21.5191 19.5955 22.1783 19.5955 22.9453H15.2809C15.2809 21.9625 15.4607 21.0397 15.8202 20.1768C16.2037 19.3138 16.7071 18.5708 17.3303 17.9475C17.9775 17.3004 18.7326 16.797 19.5955 16.4374C20.4584 16.0539 21.3813 15.8622 22.364 15.8622H24.5573Z" fill="#FAFFFF"/>
<path d="M41.0631 20.5C40.3366 20.5 39.6543 20.3671 39.0164 20.1013C38.3784 19.8178 37.8202 19.4456 37.3418 18.9849C36.881 18.5064 36.5089 17.9482 36.2254 17.3103C35.9596 16.6723 35.8267 15.9901 35.8267 15.2635V10.0271H39.0164V15.2635C39.0164 15.8306 39.2113 16.3179 39.6012 16.7255C40.0087 17.1153 40.4961 17.3103 41.0631 17.3103H46.6717C47.2388 17.3103 47.7173 17.1153 48.1071 16.7255C48.497 16.3179 48.6919 15.8306 48.6919 15.2635V10.0271H51.9082V15.2635C51.9082 15.9901 51.7664 16.6723 51.4829 17.3103C51.2171 17.9482 50.845 18.5064 50.3665 18.9849C49.888 19.4456 49.3298 19.8178 48.6919 20.1013C48.0539 20.3671 47.3806 20.5 46.6717 20.5H41.0631ZM56.2006 8.67143H53.0109V6.81075H56.2006V8.67143ZM53.0109 10.0271H56.2006V20.5H53.0109V10.0271ZM70.1227 20.5L66.4545 16.8318H60.899V20.5H57.7093V6.81075H60.899V13.6952H66.4545L70.1227 10.0271H74.5883L69.3252 15.2635L74.5883 20.5H70.1227ZM88.3967 10.8245C89.8587 11.4624 90.8422 12.7915 90.8422 15.3167C90.8422 19.7823 87.812 20.5532 83.1071 20.5532C82.3894 20.5532 80.5022 20.5266 79.0136 20.5266V20.5H77.4985V1.89326H83.2932C86.855 1.89326 89.8853 2.71727 89.8853 6.70443C89.8853 8.64485 89.7789 9.78783 88.4233 10.346C87.9714 10.5055 87.3335 10.3726 86.855 10.3726V10.6916C87.3335 10.7182 87.9714 10.6384 88.3967 10.8245ZM79.0136 9.94732H83.4792C85.9779 9.94732 88.3702 9.76125 88.3702 6.57152C88.3702 3.54128 86.1373 3.54128 83.4792 3.54128H79.0136V9.94732ZM79.0136 18.9317H83.9843C86.4032 18.9317 89.3537 18.9583 89.3537 15.2369C89.3537 11.0371 85.8715 11.303 83.24 11.303C82.6021 11.303 80.8743 11.303 79.4389 11.2764H79.0136V18.9317ZM91.108 13.7484C91.108 9.89416 93.899 6.81075 97.7001 6.81075C101.528 6.81075 104.292 9.84099 104.292 13.7484C104.292 17.6558 101.528 20.9253 97.7001 20.9253C93.899 20.9253 91.108 17.6027 91.108 13.7484ZM92.4371 13.7484C92.4371 16.9381 94.3243 19.5962 97.7001 19.5962C101.102 19.5962 102.963 16.9381 102.963 13.7484C102.963 10.5587 101.102 8.13981 97.7001 8.13981C94.3243 8.13981 92.4371 10.5587 92.4371 13.7484ZM104.964 13.7484C104.964 9.89416 107.755 6.81075 111.557 6.81075C115.384 6.81075 118.149 9.84099 118.149 13.7484C118.149 17.6558 115.384 20.9253 111.557 20.9253C107.755 20.9253 104.964 17.6027 104.964 13.7484ZM106.293 13.7484C106.293 16.9381 108.181 19.5962 111.557 19.5962C114.959 19.5962 116.82 16.9381 116.82 13.7484C116.82 10.5587 114.959 8.13981 111.557 8.13981C108.181 8.13981 106.293 10.5587 106.293 13.7484ZM121.878 11.6219L127.034 7.23605H129.267L123.685 12.3662L130.649 20.5266H128.496L122.595 13.4826L121.293 14.8382V20.5H119.884V1.22873H121.293V11.3561C121.293 11.808 121 12.313 120.814 12.7383L121.107 12.8712C121.319 12.4725 121.532 11.9143 121.878 11.6219Z" fill="#FAFFFF"/>
</svg>
