<svg width="15" height="14" viewBox="0 0 15 14" fill="none" xmlns="http://www.w3.org/2000/svg">
<g id="Group">
<path id="Vector" fill-rule="evenodd" clip-rule="evenodd" d="M9.86833 6.38166C10.0322 6.54572 10.1242 6.76811 10.1242 6.99999C10.1242 7.23186 10.0322 7.45426 9.86833 7.61832L6.569 10.9188C6.40485 11.0829 6.18225 11.175 5.95017 11.175C5.71809 11.1749 5.49553 11.0827 5.33146 10.9185C5.16739 10.7544 5.07525 10.5318 5.0753 10.2997C5.07536 10.0676 5.1676 9.84506 5.33175 9.68099L8.01275 6.99999L5.33175 4.31899C5.17228 4.15404 5.08398 3.93305 5.08587 3.70363C5.08775 3.4742 5.17967 3.2547 5.34183 3.09239C5.50398 2.93008 5.7234 2.83795 5.95282 2.83585C6.18225 2.83375 6.40332 2.92184 6.56842 3.08116L9.86833 6.38166Z" fill="#FAFFFF"/>
</g>
</svg>
