<svg width="24" height="24" viewBox="0 0 24 24" fill="none" xmlns="http://www.w3.org/2000/svg">
<g id="fluent:mic-16-regular">
<path id="Vector" d="M8.24994 6.75C8.24994 5.75544 8.64503 4.80161 9.34829 4.09835C10.0515 3.39509 11.0054 3 11.9999 3C12.9945 3 13.9483 3.39509 14.6516 4.09835C15.3549 4.80161 15.7499 5.75544 15.7499 6.75V12C15.7499 12.9946 15.3549 13.9484 14.6516 14.6517C13.9483 15.3549 12.9945 15.75 11.9999 15.75C11.0054 15.75 10.0515 15.3549 9.34829 14.6517C8.64503 13.9484 8.24994 12.9946 8.24994 12V6.75ZM11.9999 4.5C11.4032 4.5 10.8309 4.73705 10.4089 5.15901C9.98699 5.58097 9.74994 6.15326 9.74994 6.75V12C9.74994 12.5967 9.98699 13.169 10.4089 13.591C10.8309 14.0129 11.4032 14.25 11.9999 14.25C12.5967 14.25 13.169 14.0129 13.5909 13.591C14.0129 13.169 14.2499 12.5967 14.2499 12V6.75C14.2499 6.15326 14.0129 5.58097 13.5909 5.15901C13.169 4.73705 12.5967 4.5 11.9999 4.5ZM5.99994 11.25C6.19885 11.25 6.38962 11.329 6.53027 11.4697C6.67092 11.6103 6.74994 11.8011 6.74994 12C6.74994 13.3924 7.30306 14.7277 8.28763 15.7123C9.27219 16.6969 10.6076 17.25 11.9999 17.25C13.3923 17.25 14.7277 16.6969 15.7122 15.7123C16.6968 14.7277 17.2499 13.3924 17.2499 12C17.2499 11.8011 17.329 11.6103 17.4696 11.4697C17.6103 11.329 17.801 11.25 17.9999 11.25C18.1989 11.25 18.3896 11.329 18.5303 11.4697C18.6709 11.6103 18.7499 11.8011 18.7499 12C18.7503 13.6606 18.1385 15.263 17.0315 16.5008C15.9246 17.7386 14.4002 18.525 12.7499 18.7095V20.25C12.7499 20.4489 12.6709 20.6397 12.5303 20.7803C12.3896 20.921 12.1989 21 11.9999 21C11.801 21 11.6103 20.921 11.4696 20.7803C11.329 20.6397 11.2499 20.4489 11.2499 20.25V18.7095C9.59965 18.525 8.07528 17.7386 6.96835 16.5008C5.86143 15.263 5.24962 13.6606 5.24994 12C5.24994 11.8011 5.32896 11.6103 5.46961 11.4697C5.61026 11.329 5.80103 11.25 5.99994 11.25Z" fill="#A0A4A6"/>
</g>
</svg>
