<svg width="24" height="24" viewBox="0 0 24 24" fill="none" xmlns="http://www.w3.org/2000/svg">
<g id="Interface / Settings_Future">
<g id="Exclude">
<path fill-rule="evenodd" clip-rule="evenodd" d="M19.0608 17.9236L13.6006 21.0761C13.0177 21.4126 12.7259 21.5806 12.416 21.6465C12.1419 21.7047 11.8584 21.7047 11.5843 21.6465C11.2744 21.5806 10.9826 21.4126 10.3997 21.0761L4.93945 17.9236C4.35657 17.5871 4.06548 17.4188 3.85352 17.1834C3.66597 16.9751 3.52434 16.7297 3.43773 16.4632C3.33984 16.1619 3.33984 15.8254 3.33984 15.1524V8.84742C3.33984 8.17436 3.33984 7.83765 3.43773 7.53638C3.52434 7.26982 3.66597 7.02428 3.85352 6.816C4.06535 6.58073 4.35622 6.4128 4.93841 6.07667L4.93842 6.07666L4.93843 6.07666L4.93843 6.07666L10.3997 2.92359C10.9826 2.58706 11.2744 2.41914 11.5843 2.35328C11.8584 2.295 12.1419 2.295 12.416 2.35328C12.7259 2.41914 13.0167 2.58706 13.5996 2.92359L19.0674 6.08043L19.0674 6.08043C19.6453 6.41405 19.9355 6.58161 20.1465 6.816C20.3341 7.02428 20.4759 7.26982 20.5625 7.53638C20.6602 7.83694 20.6602 8.17277 20.6602 8.84268V15.1568C20.6602 15.8267 20.6602 16.1626 20.5625 16.4632C20.4759 16.7297 20.3341 16.9751 20.1465 17.1834C19.9346 17.4188 19.6437 17.5871 19.0608 17.9236ZM12 15C10.3431 15 9 13.6569 9 12C9 10.3431 10.3431 9 12 9C13.6569 9 15 10.3431 15 12C15 13.6569 13.6569 15 12 15Z" fill="#FAFFFF" fill-opacity="0.64"/>
<path d="M13.6006 21.0761L13.3506 20.6431L13.6006 21.0761ZM19.0608 17.9236L18.8108 17.4906L19.0608 17.9236ZM12.416 21.6465L12.3121 21.1574L12.3121 21.1574L12.416 21.6465ZM11.5843 21.6465L11.6882 21.1574L11.6882 21.1574L11.5843 21.6465ZM10.3997 21.0761L10.6497 20.6431L10.3997 21.0761ZM4.93945 17.9236L4.68945 18.3566H4.68945L4.93945 17.9236ZM3.85352 17.1834L3.48194 17.5179H3.48194L3.85352 17.1834ZM3.43773 16.4632L3.91326 16.3087H3.91326L3.43773 16.4632ZM3.43773 7.53638L2.9622 7.38187H2.9622L3.43773 7.53638ZM3.85352 6.816L3.48194 6.48143H3.48194L3.85352 6.816ZM4.93841 6.07667L4.69555 5.63953L4.68841 5.64366L4.93841 6.07667ZM4.93842 6.07666L4.69899 5.6377L4.6956 5.63958L4.93842 6.07666ZM4.93843 6.07666L5.17793 6.51573L5.18843 6.50967L4.93843 6.07666ZM10.3997 2.92359L10.6497 3.3566L10.3997 2.92359ZM11.5843 2.35328L11.6882 2.84235V2.84235L11.5843 2.35328ZM12.416 2.35328L12.3121 2.84235L12.3121 2.84235L12.416 2.35328ZM13.5996 2.92359L13.3496 3.3566L13.5996 2.92359ZM19.0674 6.08043L18.8174 6.51344C18.8261 6.51844 18.8349 6.52317 18.8438 6.52764L19.0674 6.08043ZM19.0674 6.08043L19.3174 5.64742C19.3088 5.64242 19.3 5.63769 19.291 5.63322L19.0674 6.08043ZM20.1465 6.816L20.5181 6.48143V6.48143L20.1465 6.816ZM20.5625 7.53638L21.038 7.38187V7.38187L20.5625 7.53638ZM20.5625 16.4632L21.038 16.6177V16.6177L20.5625 16.4632ZM20.1465 17.1834L20.5181 17.5179V17.5179L20.1465 17.1834ZM13.8506 21.5091L19.3108 18.3566L18.8108 17.4906L13.3506 20.6431L13.8506 21.5091ZM12.52 22.1355C12.9255 22.0493 13.2964 21.829 13.8506 21.5091L13.3506 20.6431C12.739 20.9962 12.5262 21.1119 12.3121 21.1574L12.52 22.1355ZM11.4803 22.1355C11.823 22.2084 12.1773 22.2084 12.52 22.1355L12.3121 21.1574C12.1064 21.2011 11.8938 21.2011 11.6882 21.1574L11.4803 22.1355ZM10.1497 21.5091C10.7038 21.829 11.0747 22.0493 11.4803 22.1355L11.6882 21.1574C11.4741 21.1119 11.2613 20.9962 10.6497 20.6431L10.1497 21.5091ZM4.68945 18.3566L10.1497 21.5091L10.6497 20.6431L5.18945 17.4906L4.68945 18.3566ZM3.48194 17.5179C3.75943 17.8261 4.13552 18.0368 4.68945 18.3566L5.18945 17.4906C4.57761 17.1373 4.37152 17.0114 4.22509 16.8488L3.48194 17.5179ZM2.9622 16.6177C3.07046 16.9509 3.24751 17.2576 3.48194 17.5179L4.22509 16.8488C4.08444 16.6926 3.97822 16.5086 3.91326 16.3087L2.9622 16.6177ZM2.83984 15.1524C2.83984 15.7917 2.83403 16.2232 2.9622 16.6177L3.91326 16.3087C3.84565 16.1006 3.83984 15.8592 3.83984 15.1524H2.83984ZM2.83984 8.84742V15.1524H3.83984V8.84742H2.83984ZM2.9622 7.38187C2.83403 7.77634 2.83984 8.2081 2.83984 8.84742H3.83984C3.83984 8.14061 3.84565 7.89895 3.91326 7.69089L2.9622 7.38187ZM3.48194 6.48143C3.24742 6.74189 3.07042 7.0488 2.9622 7.38187L3.91326 7.69089C3.97826 7.49084 4.08452 7.30668 4.22509 7.15056L3.48194 6.48143ZM4.68841 5.64366C4.13538 5.96295 3.75934 6.17335 3.48194 6.48143L4.22509 7.15056C4.37136 6.98811 4.57705 6.86265 5.18841 6.50968L4.68841 5.64366ZM4.6956 5.63958L4.69559 5.63959L5.18123 6.51375L5.18124 6.51374L4.6956 5.63958ZM4.699 5.63771L4.69899 5.63772L5.17785 6.51561L5.17785 6.51561L4.699 5.63771ZM4.69901 5.63771L4.699 5.63771L5.17785 6.51561L5.17786 6.5156L4.69901 5.63771ZM10.1497 2.49057L4.68843 5.64364L5.18843 6.50967L10.6497 3.3566L10.1497 2.49057ZM11.4803 1.8642C11.0748 1.9504 10.7039 2.17059 10.1497 2.49058L10.6497 3.3566C11.2613 3.00352 11.4741 2.88787 11.6882 2.84235L11.4803 1.8642ZM12.52 1.8642C12.1773 1.79136 11.823 1.79136 11.4803 1.8642L11.6882 2.84235C11.8938 2.79864 12.1064 2.79864 12.3121 2.84235L12.52 1.8642ZM13.8496 2.49057C13.2959 2.17088 12.9257 1.95043 12.52 1.8642L12.3121 2.84235C12.5261 2.88784 12.7376 3.00324 13.3496 3.3566L13.8496 2.49057ZM19.3174 5.64741L13.8496 2.49057L13.3496 3.3566L18.8174 6.51344L19.3174 5.64741ZM19.291 5.63322L19.291 5.63321L18.8438 6.52764L18.8438 6.52764L19.291 5.63322ZM20.5181 6.48143C20.2415 6.17424 19.8662 5.96423 19.3174 5.64742L18.8174 6.51344C19.4244 6.86388 19.6295 6.98898 19.775 7.15056L20.5181 6.48143ZM21.038 7.38187C20.9298 7.04863 20.7525 6.74176 20.5181 6.48143L19.775 7.15056C19.9157 7.30681 20.022 7.49101 20.087 7.69089L21.038 7.38187ZM21.1602 8.84268C21.1602 8.20645 21.166 7.77561 21.038 7.38187L20.087 7.69089C20.1544 7.89826 20.1602 8.1391 20.1602 8.84268H21.1602ZM21.1602 15.1568V8.84268H20.1602V15.1568H21.1602ZM21.038 16.6177C21.166 16.2239 21.1602 15.7931 21.1602 15.1568H20.1602C20.1602 15.8604 20.1544 16.1013 20.087 16.3087L21.038 16.6177ZM20.5181 17.5179C20.7524 17.2577 20.9297 16.9511 21.038 16.6177L20.087 16.3087C20.0221 16.5084 19.9157 16.6924 19.775 16.8488L20.5181 17.5179ZM19.3108 18.3566C19.8649 18.0367 20.2407 17.8261 20.5181 17.5179L19.775 16.8488C19.6285 17.0114 19.4225 17.1374 18.8108 17.4906L19.3108 18.3566ZM8.5 12C8.5 13.933 10.067 15.5 12 15.5V14.5C10.6193 14.5 9.5 13.3807 9.5 12H8.5ZM12 8.5C10.067 8.5 8.5 10.067 8.5 12H9.5C9.5 10.6193 10.6193 9.5 12 9.5V8.5ZM15.5 12C15.5 10.067 13.933 8.5 12 8.5V9.5C13.3807 9.5 14.5 10.6193 14.5 12H15.5ZM12 15.5C13.933 15.5 15.5 13.933 15.5 12H14.5C14.5 13.3807 13.3807 14.5 12 14.5V15.5Z" fill="#FAFFFF"/>
</g>
</g>
</svg>
