<svg width="20" height="20" viewBox="0 0 20 20" fill="none" xmlns="http://www.w3.org/2000/svg">
<g id="solar:file-text-linear">
<g id="Group">
<path id="Vector" d="M11.6667 17.7087H8.33335V18.9587H11.6667V17.7087ZM2.29169 11.667V8.3337H1.04169V11.667H2.29169ZM17.7084 11.3029V11.667H18.9584V11.3029H17.7084ZM12.4092 3.84287L15.7084 6.81204L16.5442 5.88204L13.2459 2.91287L12.4092 3.84287ZM18.9584 11.3029C18.9584 9.89537 18.9709 9.0037 18.6167 8.20704L17.4742 8.7162C17.6959 9.21454 17.7084 9.78537 17.7084 11.3029H18.9584ZM15.7084 6.81204C16.8359 7.82704 17.2525 8.2187 17.4742 8.7162L18.6167 8.20704C18.2617 7.40954 17.5909 6.82371 16.5442 5.88204L15.7084 6.81204ZM8.35835 2.29204C9.67669 2.29204 10.1742 2.30204 10.6167 2.47204L11.065 1.30537C10.355 1.03204 9.58169 1.04204 8.35835 1.04204V2.29204ZM13.2459 2.91371C12.3409 2.09954 11.775 1.57704 11.065 1.30537L10.6175 2.47204C11.0609 2.64204 11.4342 2.96537 12.4092 3.84287L13.2459 2.91371ZM8.33335 17.7087C6.74419 17.7087 5.61585 17.707 4.75835 17.592C3.92085 17.4795 3.43752 17.2679 3.08502 16.9154L2.20169 17.7987C2.82502 18.4237 3.61585 18.6995 4.59252 18.8312C5.55085 18.9604 6.78002 18.9587 8.33335 18.9587V17.7087ZM1.04169 11.667C1.04169 13.2204 1.04002 14.4487 1.16919 15.4079C1.30085 16.3845 1.57752 17.1754 2.20085 17.7995L3.08419 16.9162C2.73252 16.5629 2.52085 16.0795 2.40835 15.2412C2.29335 14.3854 2.29169 13.2562 2.29169 11.667H1.04169ZM11.6667 18.9587C13.22 18.9587 14.4484 18.9604 15.4075 18.8312C16.3842 18.6995 17.175 18.4229 17.7992 17.7995L16.9159 16.9162C16.5625 17.2679 16.0792 17.4795 15.2409 17.592C14.385 17.707 13.2559 17.7087 11.6667 17.7087V18.9587ZM17.7084 11.667C17.7084 13.2562 17.7067 14.3854 17.5917 15.242C17.4792 16.0795 17.2675 16.5629 16.915 16.9154L17.7984 17.7987C18.4234 17.1754 18.6992 16.3845 18.8309 15.4079C18.96 14.4495 18.9584 13.2204 18.9584 11.667H17.7084ZM2.29169 8.3337C2.29169 6.74454 2.29335 5.61621 2.40835 4.75871C2.52085 3.92121 2.73252 3.43787 3.08502 3.08537L2.20169 2.20204C1.57669 2.82537 1.30085 3.61621 1.16919 4.59287C1.04002 5.55121 1.04169 6.78037 1.04169 8.3337H2.29169ZM8.35835 1.04204C6.79585 1.04204 5.56169 1.04037 4.59919 1.16954C3.61835 1.30121 2.82502 1.57787 2.20085 2.20121L3.08419 3.08454C3.43752 2.73287 3.92169 2.52121 4.76502 2.40871C5.62585 2.29371 6.76085 2.29204 8.35835 2.29204V1.04204Z" fill="#A0A4A6"/>
<path id="Vector_2" d="M5 12.0835H11.6667M5 15.0002H9.58333" stroke="#A0A4A6" stroke-width="1.25" stroke-linecap="round"/>
<path id="Vector_3" d="M10.8334 2.0835V4.16683C10.8334 6.131 10.8334 7.1135 11.4434 7.7235C12.0534 8.3335 13.0359 8.3335 15 8.3335H18.3334" stroke="#A0A4A6" stroke-width="1.25"/>
</g>
</g>
</svg>
