<svg width="24" height="24" viewBox="0 0 24 24" fill="none" xmlns="http://www.w3.org/2000/svg">
<g id="f7:tree" clip-path="url(#clip0_349_853)">
<path id="Vector" opacity="0.5" d="M13.7886 20.0693C13.3719 18.9706 13.3839 17.5987 13.8241 15.9538L10.0643 15.5386C10.5913 17.2296 10.6383 18.7277 10.2063 20.0318C9.46473 22.2691 7.02441 22.8 7.02441 23.1998C7.02441 23.6002 9.59577 24 11.6919 24C13.7886 24 17.498 23.7298 17.3713 23.1998C17.2446 22.6704 14.5542 22.0891 13.7886 20.0693Z" fill="#FAFFFF" fill-opacity="0.64"/>
<path id="Vector_2" d="M9.65846 15.6C9.79601 15.6003 9.93279 15.5796 10.0641 15.5386L13.8239 15.9538C14.1071 15.8899 14.3601 15.7632 14.5617 15.5918C14.9851 15.862 15.4778 16.0038 15.9801 15.9998C16.6367 15.9998 17.2305 15.769 17.6557 15.3965C18.0183 15.5322 18.4024 15.6012 18.7895 15.6C20.3418 15.6 21.5994 14.5253 21.5994 13.2C21.5994 12.2962 21.0143 11.509 20.1503 11.0995C20.1791 11.004 20.1945 10.9037 20.1945 10.8C20.1945 10.5298 20.0898 10.2806 19.9141 10.08C20.3687 9.78816 20.6629 9.32304 20.6629 8.79984C20.6629 8.19744 20.2732 7.6728 19.6972 7.40016C20.2732 7.12704 20.6629 6.6024 20.6629 6C20.6629 5.11632 19.8244 4.40016 18.7895 4.40016C18.4607 4.39865 18.1361 4.47393 17.8415 4.62C17.7369 3.8208 16.9429 3.20016 15.9801 3.20016C15.8913 3.20016 15.8039 3.20544 15.7189 3.21552C15.8845 2.97648 15.9801 2.6976 15.9801 2.4C15.9801 1.51632 15.1415 0.80016 14.1071 0.80016C13.5359 0.80016 13.0247 1.01808 12.6815 1.36176C12.5471 0.59136 11.7685 0 10.8287 0C9.90998 0 9.14487 0.56592 8.98646 1.31184C8.75798 1.23936 8.51126 1.2 8.2535 1.2C7.32566 1.2 6.5375 1.71216 6.2567 2.424C6.14438 2.40816 6.02918 2.4 5.91206 2.4C4.74806 2.4 3.80486 3.20592 3.80486 4.2C3.80728 4.57238 3.93817 4.9325 4.17542 5.21952C3.16934 5.34096 2.3999 6.00192 2.3999 6.80016C2.3999 7.30272 2.70566 7.752 3.18326 8.0448C2.72726 8.15424 2.3999 8.45088 2.3999 8.79984C2.3999 9.0816 2.61206 9.32832 2.93318 9.47088C2.89094 9.57408 2.86838 9.68496 2.86838 9.80016C2.86838 10.1318 3.0575 10.4261 3.34886 10.608C2.78198 10.883 2.3999 11.4034 2.3999 12C2.3999 12.8837 3.23846 13.5998 4.27286 13.5998C4.44207 13.6001 4.61073 13.5806 4.77542 13.5418C4.9655 14.4835 5.92598 15.1997 7.08278 15.1997C7.61894 15.1997 8.11334 15.0461 8.5079 14.7869C8.61062 15.2496 9.08678 15.6 9.65846 15.6Z" fill="#FAFFFF" fill-opacity="0.64"/>
</g>
<defs>
<clipPath id="clip0_349_853">
<rect width="24" height="24" fill="white"/>
</clipPath>
</defs>
</svg>
