<svg width="21" height="20" viewBox="0 0 21 20" fill="none" xmlns="http://www.w3.org/2000/svg">
<g id="solar:verified-check-bold">
<rect id="Rectangle 8" x="5.33325" y="5" width="10" height="10" fill="#FAFFFF"/>
<path id="Vector" fill-rule="evenodd" clip-rule="evenodd" d="M8.3267 2.66671C8.19564 2.78531 8.05792 2.89632 7.9142 2.99921C7.66587 3.16588 7.3867 3.28088 7.09337 3.33921C6.96587 3.36421 6.83254 3.37505 6.5667 3.39588C5.8992 3.44921 5.56504 3.47588 5.2867 3.57421C4.96845 3.68658 4.6794 3.86877 4.44074 4.10742C4.20209 4.34607 4.0199 4.63513 3.90754 4.95338C3.8092 5.23171 3.78254 5.56588 3.7292 6.23338C3.72011 6.40985 3.70119 6.58568 3.67254 6.76005C3.6142 7.05338 3.4992 7.33255 3.33254 7.58088C3.26004 7.68921 3.17337 7.79088 3.00004 7.99338C2.56587 8.50338 2.34837 8.75838 2.22087 9.02505C1.9267 9.64171 1.9267 10.3584 2.22087 10.975C2.34837 11.2417 2.56587 11.4967 3.00004 12.0067C3.17337 12.2092 3.26004 12.3109 3.33254 12.4192C3.4992 12.6675 3.6142 12.9467 3.67254 13.24C3.69754 13.3675 3.70837 13.5009 3.7292 13.7667C3.78254 14.4342 3.8092 14.7684 3.90754 15.0467C4.0199 15.365 4.20209 15.654 4.44074 15.8927C4.6794 16.1313 4.96845 16.3135 5.2867 16.4259C5.56504 16.5242 5.8992 16.5509 6.5667 16.6042C6.83254 16.625 6.96587 16.6359 7.09337 16.6609C7.3867 16.7192 7.66587 16.835 7.9142 17.0009C8.02254 17.0734 8.1242 17.16 8.3267 17.3334C8.8367 17.7675 9.0917 17.985 9.35837 18.1125C9.97504 18.4067 10.6917 18.4067 11.3084 18.1125C11.575 17.985 11.83 17.7675 12.34 17.3334C12.5425 17.16 12.6442 17.0734 12.7525 17.0009C13.0009 16.8342 13.28 16.7192 13.5734 16.6609C13.7009 16.6359 13.8342 16.625 14.1 16.6042C14.7675 16.5509 15.1017 16.5242 15.38 16.4259C15.6983 16.3135 15.9873 16.1313 16.226 15.8927C16.4646 15.654 16.6468 15.365 16.7592 15.0467C16.8575 14.7684 16.8842 14.4342 16.9375 13.7667C16.9584 13.5009 16.9692 13.3675 16.9942 13.24C17.0525 12.9467 17.1684 12.6675 17.3342 12.4192C17.4067 12.3109 17.4934 12.2092 17.6667 12.0067C18.1009 11.4967 18.3184 11.2417 18.4459 10.975C18.74 10.3584 18.74 9.64171 18.4459 9.02505C18.3184 8.75838 18.1009 8.50338 17.6667 7.99338C17.5481 7.86232 17.4371 7.7246 17.3342 7.58088C17.1677 7.33245 17.0521 7.05345 16.9942 6.76005C16.9656 6.58568 16.9466 6.40985 16.9375 6.23338C16.8842 5.56588 16.8575 5.23171 16.7592 4.95338C16.6468 4.63513 16.4646 4.34607 16.226 4.10742C15.9873 3.86877 15.6983 3.68658 15.38 3.57421C15.1017 3.47588 14.7675 3.44921 14.1 3.39588C13.9236 3.38679 13.7477 3.36787 13.5734 3.33921C13.28 3.28129 13.001 3.16572 12.7525 2.99921C12.609 2.8961 12.4713 2.7851 12.34 2.66671C11.83 2.23255 11.575 2.01505 11.3084 1.88755C11.0039 1.74203 10.6708 1.6665 10.3334 1.6665C9.99595 1.6665 9.6628 1.74203 9.35837 1.88755C9.0917 2.01505 8.8367 2.23255 8.3267 2.66671ZM13.9775 8.21921C14.0953 8.0903 14.1588 7.92094 14.1549 7.74638C14.151 7.57181 14.0799 7.40548 13.9564 7.28201C13.8329 7.15854 13.6666 7.08744 13.492 7.0835C13.3175 7.07957 13.1481 7.1431 13.0192 7.26088L8.97754 11.3025L7.64754 9.97338C7.51863 9.8556 7.34926 9.79207 7.1747 9.79601C7.00013 9.79994 6.8338 9.87104 6.71033 9.99451C6.58686 10.118 6.51576 10.2843 6.51183 10.4589C6.50789 10.6334 6.57142 10.8028 6.6892 10.9317L8.49754 12.74C8.62471 12.867 8.79704 12.9382 8.9767 12.9382C9.15637 12.9382 9.3287 12.867 9.45587 12.74L13.9775 8.21921Z" fill="#3399CC"/>
</g>
</svg>
